<svg><defs><font id="FixedsysTTF" horiz-adv-x="550"><font-face font-family="FixedsysTTF" font-weight="600" panose-1="2 0 0 9 0 0 0 0 0 0" ascent="800" descent="-200" x-height="465" cap-height="610" bbox="-1 -288 550 813" underline-thickness="50" underline-position="-75" unicode-range="U+0001-U+20AC"/><glyph glyph-name=".notdef"/><glyph glyph-name="uni0001" d="M67 600h400V0H67v600z"/><glyph glyph-name="uni0001" d="M67 600h400V0H67v600z"/><glyph glyph-name="uni0001" d="M67 600h400V0H67v600z"/><glyph glyph-name="uni0001" d="M67 600h400V0H67v600z"/><glyph glyph-name="uni0001" d="M67 600h400V0H67v600z"/><glyph glyph-name="uni0001" d="M67 600h400V0H67v600z"/><glyph glyph-name="uni0001" d="M67 600h400V0H67v600z"/><glyph glyph-name="uni0001" d="M67 600h400V0H67v600z"/><glyph glyph-name="uni0001" d="M67 600h400V0H67v600z"/><glyph glyph-name="uni0001" d="M67 600h400V0H67v600z"/><glyph glyph-name="uni0001" d="M67 600h400V0H67v600z"/><glyph glyph-name="uni0001" d="M67 600h400V0H67v600z"/><glyph glyph-name="uni0001" d="M67 600h400V0H67v600z"/><glyph glyph-name="uni0001" d="M67 600h400V0H67v600z"/><glyph glyph-name="uni0001" d="M67 600h400V0H67v600z"/><glyph glyph-name="uni0001" d="M67 600h400V0H67v600z"/><glyph glyph-name="uni0001" d="M67 600h400V0H67v600z"/><glyph glyph-name="uni0001" d="M67 600h400V0H67v600z"/><glyph glyph-name="uni0001" d="M67 600h400V0H67v600z"/><glyph glyph-name="uni0001" d="M67 600h400V0H67v600z"/><glyph glyph-name="uni0001" d="M67 600h400V0H67v600z"/><glyph glyph-name="uni0001" d="M67 600h400V0H67v600z"/><glyph glyph-name="uni0001" d="M67 600h400V0H67v600z"/><glyph glyph-name="uni0001" d="M67 600h400V0H67v600z"/><glyph glyph-name="uni0001" unicode="" d="M67 600h400V0H67v600z"/><glyph glyph-name="uni0001" d="M67 600h400V0H67v600z"/><glyph glyph-name="uni0001" d="M67 600h400V0H67v600z"/><glyph glyph-name="uni0001" d="M67 600h400V0H67v600z"/><glyph glyph-name="uni0001" d="M67 600h400V0H67v600z"/><glyph glyph-name="uni0001" d="M67 600h400V0H67v600z"/><glyph glyph-name="uni0001" d="M67 600h400V0H67v600z"/><glyph glyph-name="uni0001" d="M67 600h400V0H67v600z"/><glyph glyph-name="uni0001" d="M67 600h400V0H67v600z"/><glyph glyph-name="uni0001" d="M67 600h400V0H67v600z"/><glyph glyph-name="uni0001" d="M67 600h400V0H67v600z"/><glyph glyph-name="uni0001" d="M67 600h400V0H67v600z"/><glyph glyph-name="uni0001" d="M67 600h400V0H67v600z"/><glyph glyph-name="uni0001" d="M67 600h400V0H67v600z"/><glyph glyph-name="uni0001" d="M67 600h400V0H67v600z"/><glyph glyph-name="uni0001" d="M67 600h400V0H67v600z"/><glyph glyph-name="uni0001" d="M67 600h400V0H67v600z"/><glyph glyph-name="uni0001" d="M67 600h400V0H67v600z"/><glyph glyph-name="uni0001" d="M67 600h400V0H67v600z"/><glyph glyph-name="uni0001" d="M67 600h400V0H67v600z"/><glyph glyph-name="uni0001" d="M67 600h400V0H67v600z"/><glyph glyph-name="uni0001" d="M67 600h400V0H67v600z"/><glyph glyph-name="uni0001" d="M67 600h400V0H67v600z"/><glyph glyph-name="uni0001" d="M67 600h400V0H67v600z"/><glyph glyph-name="uni0001" d="M67 600h400V0H67v600z"/><glyph glyph-name="uni0001" d="M67 600h400V0H67v600z"/><glyph glyph-name="uni0001" d="M67 600h400V0H67v600z"/><glyph glyph-name="uni0001" d="M67 600h400V0H67v600z"/><glyph glyph-name="uni0001" d="M67 600h400V0H67v600z"/><glyph glyph-name="uni0001" d="M67 600h400V0H67v600z"/><glyph glyph-name="uni0001" d="M67 600h400V0H67v600z"/><glyph glyph-name="uni0001" d="M67 600h400V0H67v600z"/><glyph glyph-name="uni0001" d="M67 600h400V0H67v600z"/><glyph glyph-name="uni0001" d="M67 600h400V0H67v600z"/><glyph glyph-name="uni0001" d="M67 600h400V0H67v600z"/><glyph glyph-name="space"/><glyph glyph-name="space"/><glyph glyph-name="exclam" unicode="!" d="M226 130V0h120v130H226zm-5 205 .002-125h130v125h65v205c-2.667-1.333-6.834-1.833-12.501-1.5s-11.667 1-18 2-12.333 2.333-18 4-9.5 3.5-11.5 5.5-3.833 5.833-5.5 11.5-3 11.667-4 18-1.667 12.333-2 18 .167 9.834 1.5 12.501h-120c1.333-2.667 1.833-6.834 1.5-12.501s-1-11.667-2-18-2.333-12.333-4-18-3.5-9.5-5.5-11.5-5.833-3.833-11.5-5.5-11.667-3-18-4-12.333-1.667-18-2-9.834.167-12.501 1.5V335h65z"/><glyph glyph-name="quotedbl" unicode="&quot;" d="M54 602V402h130v200H54zm270 0V402h130v200H324z"/><glyph glyph-name="numbersign" unicode="#" d="M119 135V0h123v130h90V0h127v135h69v70h-68v200h68v70h-69v135H332V480h-85v130H119V475H50v-70h64V205H50v-70h69zm128 265h80V210h-80v190z"/><glyph glyph-name="dollar" unicode="$" d="M187 1v-134h128V3h70v69l69 2v138h-68v69h-71v61h-69l-1 70h-59v141h129v-70h140v70h-69l-1 69h-70v139H186V622h-70v-71H47V413h70v-69h69v-61h60v-70l68 1V72H186v69H45V74h69c0-12.667.167-24.5.5-35.5s.5-22.833.5-35.5c2-.667 6.333-1 13-1h44c7.333 0 12.333-.333 15-1z"/><glyph glyph-name="percent" unicode="%" d="M266 10v-65.002h205c-1.333 2.667-1.833 6.834-1.5 12.501s1 11.667 2 18 2.333 12.333 4 18 3.5 9.5 5.5 11.5 5.833 3.833 11.5 5.5 11.667 3 18 4 12.333 1.667 18 2 9.834-.167 12.501-1.5v130c-2.667-1.333-6.834-1.833-12.501-1.5s-11.667 1-18 2-12.333 2.333-18 4-9.5 3.5-11.5 5.5-3.833 5.833-5.5 11.5-3 11.667-4 18-1.667 12.333-2 18 .167 9.834 1.5 12.501H266v-65h-55V10h55zm75 134.998h60v-130h-60v130zm-270 70 .002-129.999h60c-1.333 2.667-1.833 6.834-1.5 12.501s1 11.667 2 18 2.333 12.333 4 18 3.5 9.5 5.5 11.5c.667.667 4 1.5 10 2.5s12.5 1.833 19.5 2.5 13.5 1.334 19.5 2.001 9.667 1.667 11 3c2 2 3.833 6 5.5 12s3 12.5 4 19.5 1.667 13.667 2 20-.167 10.833-1.5 13.5h50c-1.333 2.667-2 7-2 13 0 6.667.5 13.5 1.5 20.5s2.5 13.5 4.5 19.5 4 10 6 12 6 4 12 6 12.5 3.5 19.5 4.5 13.5 1.5 19.5 1.5c6.667 0 11.334-.667 14.001-2v50c2.667-1.333 7.167-1.833 13.5-1.5s13 1 20 2 13.5 2.333 19.5 4 10 3.5 12 5.5c.667.667 1.5 4 2.5 10s1.833 12.5 2.5 19.5 1.334 13.5 2 19.5 1.668 9.667 3 11c2 2 5.834 3.833 11.5 5.5s11.668 3 18 4 12.334 1.667 18 2 9.835-.167 12.502-1.5v130h-60c1.333-2.667 1.833-6.834 1.5-12.501s-1-11.667-2-18-2.333-12.333-4-18-3.5-9.5-5.5-11.5c-1.333-1.333-5-2.333-11-3s-12.5-1.334-19.5-2.001-13.5-1.5-19.5-2.5-9.333-1.833-10-2.5c-1.333-1.333-2.333-5-3-11s-1.334-12.5-2.001-19.5-1.5-13.5-2.5-19.5-1.833-9.333-2.5-10c-1.333-1.333-5-2.333-11-3s-12.5-1.334-19.5-2.001-13.5-1.5-19.5-2.5-9.333-1.833-10-2.5c-2-2-3.833-5.833-5.5-11.5s-3-11.667-4-18-1.667-12.333-2-18 .167-9.834 1.5-12.501c-2 .667-5.5.834-10.5.501s-10.167-1-15.5-2-10.333-2.167-15-3.5-7.667-3-9-5-2.833-5.333-4.5-10-3-9.667-4-15-1.833-10.333-2.5-15-.334-8 .999-10c-2.667 1.333-6.834 1.833-12.501 1.5s-11.667-1-18-2-12.333-2.333-18-4-9.5-3.5-11.5-5.5c-1.333-1.333-2.333-5-3-11s-1.334-12.5-2.001-19.5-1.5-13.5-2.5-19.5-1.833-9.333-2.5-10c-2-2-5.833-3.833-11.5-5.5s-11.667-3-18-4-12.333-1.667-18-2-9.834.167-12.501 1.5zM1.002 494.999c2.667 1.333 6.834 1.833 12.5 1.5s11.668-1 18-2 12.334-2.333 18-4 9.5-3.5 11.5-5.5 3.834-5.833 5.5-11.5 3.001-11.667 4.001-18 1.667-12.333 2-18-.167-9.834-1.5-12.501h190c-1.333 2.667-1.833 6.834-1.5 12.501s1 11.667 2 18 2.333 12.333 4 18 3.5 9.5 5.5 11.5 5.833 3.833 11.5 5.5 11.667 3 18 4 12.333 1.667 18 2 9.834-.167 12.501-1.5v130c-2.667-1.333-6.834-1.833-12.501-1.5s-11.667 1-18 2-12.333 2.333-18 4-9.5 3.5-11.5 5.5-3.833 5.833-5.5 11.5-3 11.667-4 18-1.667 12.333-2 18 .167 9.834 1.5 12.501h-190c1.333-2.667 1.833-6.834 1.5-12.501s-1-11.667-2-18-2.333-12.333-4-18-3.5-9.5-5.5-11.5-5.833-3.833-11.5-5.5-11.667-3-18-4-12.333-1.667-18-2-9.834.167-12.501 1.5v-130zm140 130h60v-130h-60v130z"/><glyph glyph-name="ampersand" unicode="&amp;" d="M56 70c2.667 1.333 6.834 1.834 12.501 1.501s11.667-1 18-2 12.333-2.333 18-4 9.5-3.5 11.5-5.5 3.833-5.833 5.5-11.5 3-11.667 4-18 1.667-12.333 2-18-.167-9.834-1.5-12.501h195v60h70V0h135v65h-60v140h60v65h-270v-65h60V70h-120v265h120c-1.333 2.667-1.833 7.167-1.5 13.5s1 13 2 20 2.333 13.5 4 19.5 3.5 10 5.5 12 5.833 3.833 11.5 5.5 11.667 3 18 4 12.333 1.667 18 2 9.834-.167 12.501-1.5v130c-2.667-1.333-6.834-1.833-12.501-1.5s-11.667 1-18 2-12.333 2.333-18 4-9.5 3.5-11.5 5.5-3.833 5.833-5.5 11.5-3 11.667-4 18-1.667 12.333-2 18 .167 9.834 1.5 12.501h-190c1.333-2.667 1.833-6.834 1.5-12.501s-1-11.667-2-18-2.333-12.333-4-18-3.5-9.5-5.5-11.5-5.833-3.833-11.5-5.5-11.667-3-18-4-12.333-1.667-18-2-9.834.167-12.501 1.5V405h60v-70H56V70zm140 470.001h50v-130h-50v130z"/><glyph glyph-name="quotesingle" unicode="'" d="M178 604V404h120v200H178z"/><glyph glyph-name="parenleft" unicode="(" d="M282-66v-65h135v65h-65V74h-65v340h65v140h65v65H282v-65h-60V414h-65V74h65V-66h60z"/><glyph glyph-name="parenright" unicode=")" d="m165-61 1-68h121v65h75V76h65v340h-65v137h-70v68H166l-1-72h66l1-133h55V76h-55l-1-137h-66z"/><glyph glyph-name="asterisk" unicode="*" d="M109 216v-65h125v60h70v-60h135v65h-60v70h130v60H379v70h60v65H304v-60h-70v60H109v-65h60v-70H39v-60h130v-70h-60z"/><glyph glyph-name="plus" unicode="+" d="M194 252V117h130v135h135v60H324v135H194V312H59v-60h135z"/><glyph glyph-name="comma" unicode="," d="m200-63-.001-65.001h120c-1.333 2.667-1.833 6.834-1.5 12.501s1 11.667 2 18 2.333 12.333 4 18 3.5 9.5 5.5 11.5 5.833 3.833 11.5 5.5 11.667 3 18 4 12.333 1.667 18 2 9.834-.167 12.501-1.5v200H200V7h50v-70h-50z"/><glyph glyph-name="minus" unicode="-" d="M56 303v-50h400v50H56z"/><glyph glyph-name="period" unicode="." d="M198 130V0h190v130H198z"/><glyph glyph-name="slash" unicode="/" d="M87-64h99l301 631v49H379L87 32v-96z"/><glyph glyph-name="zero" unicode="0" d="M82 71c2.667 1.333 6.834 1.833 12.501 1.5s11.667-1 18-2 12.333-2.333 18-4 9.5-3.5 11.5-5.5 3.833-5.833 5.5-11.5 3-11.667 4-18 1.667-12.333 2-18-.167-9.834-1.5-12.501h260c-1.333 2.667-1.833 6.834-1.5 12.501s1 11.667 2 18 2.333 12.333 4 18 3.5 9.5 5.5 11.5 5.833 3.833 11.5 5.5 11.667 3 18 4 12.333 1.667 18 2 9.834-.167 12.501-1.5v470c-2.667-1.333-6.834-1.833-12.501-1.5s-11.667 1-18 2-12.333 2.333-18 4-9.5 3.5-11.5 5.5-3.833 5.833-5.5 11.5-3 11.667-4 18-1.667 12.333-2 18 .167 9.834 1.5 12.501h-260c1.333-2.667 1.833-6.834 1.5-12.501s-1-11.667-2-18-2.333-12.333-4-18-3.5-9.5-5.5-11.5-5.833-3.833-11.5-5.5-11.667-3-18-4-12.333-1.667-18-2-9.834.167-12.501 1.5V71zm136 63h60v140h-60v265h130v-65h-60V334h60V69H218v65z"/><glyph glyph-name="one" unicode="1" d="M249 406V1h135v610H249v-65h-60v-70H54v-70h195z"/><glyph glyph-name="two" unicode="2" d="M98 0h400.001v65h-260v70h58c-1.333 2.667-2.333 7.167-3 13.5s-1 12.833-1 19.5c0 7.333.5 14 1.5 20s2.5 10 4.5 12c.667.667 4 1.5 10 2.5s12.5 1.833 19.5 2.5 13.5 1.334 19.5 2.001 9.667 1.667 11 3c.667.667 1.5 4 2.5 10s1.833 12.5 2.5 19.5 1.334 13.5 2.001 19.5 1.667 9.667 3 11c2 2 6 3.833 12 5.5s12.5 3 19.5 4 13.667 1.667 20 2 10.833-.167 13.5-1.5v55h65v205c-2.667-1.333-6.834-1.833-12.501-1.5s-11.667 1-18 2-12.333 2.333-18 4-9.5 3.5-11.5 5.5-3.833 5.833-5.5 11.5-3 11.667-4 18-1.667 12.333-2 18 .167 9.834 1.5 12.501h-260c1.333-2.667 1.833-6.834 1.5-12.501s-1-11.667-2-18-2.333-12.333-4-18-3.5-9.5-5.5-11.5-5.833-3.833-11.5-5.5-11.667-3-18-4-12.333-1.667-18-2-9.834.167-12.501 1.5v-130h135v130h125v-205h-60c.667-2 1-5.667 1-11s-.5-11-1.5-17-2.333-11.5-4-16.5-3.5-8.5-5.5-10.5c-1.333-2-4.5-3.5-9.5-4.5s-10.5-1.833-16.5-2.5-12-1-18-1c-5.333 0-9 .667-11 2 1.333-2.667 2.5-7.334 3.5-14.001s1.5-14 1.5-22c0-7.333-.333-14.333-1-21s-2-11-4-13c-1.333-1.333-5.333-1.833-12-1.5s-14.167.833-22.5 1.5-16.166 1-23.499 1c-6.667 0-10.334-.333-11.001-1-1.333-1.333-2-5.333-2-12s.167-14.167.5-22.5.333-16 0-23-.833-10.833-1.5-11.5c-2-2-6-3.333-12-4s-12.333-1-19-1-13 .5-19 1.5-10.333 2.167-13 3.5V0z"/><glyph glyph-name="three" unicode="3" d="M95 70c2.667 1.333 6.834 1.833 12.501 1.5s11.667-1 18-2 12.333-2.333 18-4 9.5-3.5 11.5-5.5 3.833-5.833 5.5-11.5 3-11.667 4-18 1.667-12.333 2-18-.167-9.834-1.5-12.501h260c-1.333 2.667-1.833 6.834-1.5 12.501s1 11.667 2 18 2.333 12.333 4 18 3.5 9.5 5.5 11.5 5.833 3.833 11.5 5.5 11.667 3 18 4 12.333 1.667 18 2 9.834-.167 12.501-1.5v205h-60v60h60v205c-2.667-1.333-6.834-1.833-12.501-1.5s-11.667 1-18 2-12.333 2.333-18 4-9.5 3.5-11.5 5.5-3.833 5.833-5.5 11.5-3 11.667-4 18-1.667 12.333-2 18 .167 9.834 1.5 12.501h-260c1.333-2.667 1.833-6.834 1.5-12.501s-1-11.667-2-18-2.333-12.333-4-18-3.5-9.5-5.5-11.5-5.833-3.833-11.5-5.5-11.667-3-18-4-12.333-1.667-18-2-9.834.167-12.501 1.5V410h135v130h125V335H235v-60h120V70H230v130H95V70z"/><glyph glyph-name="four" unicode="4" d="M319 135V0h140v135h65v70h-65v265H319V210H194v65h50v335H119V275H54V135h265z"/><glyph glyph-name="five" unicode="5" d="M44 65 43.999-.002h313c-1.333 2.667-1.833 6.834-1.5 12.501s1 11.667 2 18 2.333 12.333 4 18 3.5 9.5 5.5 11.5c.667.667 4 1.5 10 2.5s12.5 1.833 19.5 2.5 13.5 1.334 19.5 2.001 9.667 1.667 11 3c.667.667 1.5 4 2.5 10s1.833 12.5 2.5 19.5S433.333 113 434 119s1.667 9.667 3 11c2 2 5.833 3.833 11.5 5.5s11.667 3 18 4 12.333 1.667 18 2 9.834-.167 12.501-1.5v135h-65v60h-248v210h313v65h-453V275h313V140c-2.667 1.333-6.834 1.833-12.501 1.5s-11.667-1-18-2-12.333-2.333-18-4S299 132 297 130s-3.833-6-5.5-12-3-12.5-4-19.5-1.667-13.667-2-20 .167-10.833 1.5-13.5H44z"/><glyph glyph-name="six" unicode="6" d="M95 70c2.667 1.333 6.832 1.833 12.499 1.5s11.667-1 18-2 12.333-2.333 18-4 9.5-3.5 11.5-5.5 3.833-5.833 5.5-11.5 3-11.667 4-18 1.667-12.333 2-18-.167-9.834-1.5-12.501h260c-1.333 2.667-1.833 6.834-1.5 12.501s1 11.667 2 18 2.333 12.333 4 18 3.5 9.5 5.5 11.5 5.833 3.833 11.5 5.5 11.667 3 18 4 12.333 1.667 18 2 9.834-.167 12.501-1.5v260c-2.667-1.333-6.834-1.833-12.501-1.5s-11.667 1-18 2-12.333 2.333-18 4-9.5 3.5-11.5 5.5-3.833 6-5.5 12-3 12.5-4 19.5-1.667 13.667-2 20 .167 10.833 1.5 13.5h-130v65c2.667-1.333 6.834-1.833 12.501-1.5s11.667 1 18 2 12.333 2.333 18 4S353 478 355 480c.667.667 1.5 4 2.5 10s1.833 12.5 2.5 19.5 1.334 13.5 2.001 19.5 1.667 9.667 3 11c2 2 5.833 3.833 11.5 5.5s11.667 3 18 4 12.333 1.667 18 2 9.834-.167 12.501-1.5v60h-195V480c-2.667 1.333-7.167 1.833-13.5 1.5s-13-1-20-2-13.5-2.333-19.5-4-10-3.5-12-5.5c-1.333-1.333-2.333-5-3-11s-1.334-12.5-2.001-19.5-1.5-13.5-2.5-19.5-1.833-9.333-2.5-10c-2-2-5.833-3.833-11.5-5.5s-11.667-3-18-4-12.333-1.667-18-2-9.834.167-12.501 1.5V70zm139.998 260h120V70h-120v260z"/><glyph glyph-name="seven" unicode="7" d="M157 205V0h125v205h70v130h70v140h65v135H87v-65h260v-70h-65V335h-60V205h-65z"/><glyph glyph-name="eight" unicode="8" d="M87 70c2.667 1.333 6.834 1.833 12.501 1.5s11.667-1 18-2 12.333-2.333 18-4 9.5-3.5 11.5-5.5 3.833-5.833 5.5-11.5 3-11.667 4-18 1.667-12.333 2-18-.167-9.834-1.5-12.501h260c-1.333 2.667-1.833 6.834-1.5 12.501s1 11.667 2 18 2.333 12.333 4 18 3.5 9.5 5.5 11.5 5.833 3.833 11.5 5.5 11.667 3 18 4 12.333 1.667 18 2 9.834-.167 12.501-1.5v205h-60v60h60v205c-2.667-1.333-6.834-1.833-12.501-1.5s-11.667 1-18 2-12.333 2.333-18 4-9.5 3.5-11.5 5.5-3.833 5.833-5.5 11.5-3 11.667-4 18-1.667 12.333-2 18 .167 9.834 1.5 12.501h-260c1.333-2.667 1.833-6.834 1.5-12.501s-1-11.667-2-18-2.333-12.333-4-18-3.5-9.5-5.5-11.5-5.833-3.833-11.5-5.5-11.667-3-18-4-12.333-1.667-18-2-9.834.167-12.501 1.5V335h60v-60H87V70zm140 200 49.999.001c-1.333-2.667-1.833-6.834-1.5-12.501s1-11.667 2-18 2.333-12.333 4-18 3.5-9.5 5.5-11.5 5.833-3.833 11.5-5.5 11.667-3 18-4 12.333-1.667 18-2 9.834.167 12.501 1.5V70H227v200zm54.999 135.001h-55v135h120v-200h-65v65z"/><glyph glyph-name="nine" unicode="9" d="M156 60V0h195v130c2.667-1.333 7.167-1.833 13.5-1.5s13 1 20 2 13.5 2.333 19.5 4 10 3.5 12 5.5c.667.667 1.5 4 2.5 10s1.833 12.5 2.5 19.5 1.334 13.5 2.001 19.5 1.667 9.667 3 11c2 2 5.833 3.833 11.5 5.5s11.667 3 18 4 12.333 1.667 18 2 9.834-.167 12.501-1.5v330c-2.667-1.333-6.834-1.833-12.501-1.5s-11.667 1-18 2-12.333 2.333-18 4-9.5 3.5-11.5 5.5-3.833 5.833-5.5 11.5-3 11.667-4 18-1.667 12.333-2 18 .167 9.834 1.5 12.501h-260c1.333-2.667 1.833-6.834 1.5-12.501s-1-11.667-2-18-2.333-12.333-4-18-3.5-9.5-5.5-11.5-5.833-3.833-11.5-5.5-11.667-3-18-4-12.333-1.667-18-2-9.834.167-12.501 1.5V280c2.667 1.333 6.834 1.833 12.501 1.5s11.667-1 18-2 12.333-2.333 18-4 9.5-3.5 11.5-5.5 3.833-6 5.5-12 3-12.5 4-19.5 1.667-13.667 2-20-.167-10.833-1.5-13.5h120v-70h-50c1.333-2.667 1.833-7.167 1.5-13.5s-1-13-2-20-2.333-13.5-4-19.5-3.5-10-5.5-12-5.833-3.833-11.5-5.5-11.667-3-18-4-12.333-1.667-18-2-9.834.167-12.501 1.5zm70 480h120V280H226v260z"/><glyph glyph-name="colon" unicode=":" d="M193 139V9h190v130H193zm0 340V349h190v130H193z"/><glyph glyph-name="semicolon" unicode=";" d="m198-66-.001-65.001h120c-1.333 2.667-1.833 6.834-1.5 12.501s1 11.667 2 18 2.333 12.333 4 18 3.5 9.5 5.5 11.5 5.833 3.833 11.5 5.5 11.667 3 18 4 12.333 1.667 18 2 9.834-.167 12.501-1.5v200H198V4h50v-70h-50zm-.001 544.999v-130h190v130h-190z"/><glyph glyph-name="less" unicode="&lt;" d="M494 0H392L91 300l301 310h102v-42L227 299 494 37V0z"/><glyph glyph-name="equal" unicode="=" d="M99 283v-60h401v60H99zm0 139v-60h401v60H99z"/><glyph glyph-name="greater" unicode="&gt;" d="M92 0h102l301 300-301 310H92v-42l259-261L92 42V0z"/><glyph glyph-name="question" unicode="?" d="M211 130V0h120v130H211zm0 205 .001-125h125v120c2.667-1.333 7.167-1.833 13.5-1.5s13 1 20 2 13.5 2.333 19.5 4 10 3.5 12 5.5c.667.667 1.5 4 2.5 10s1.833 12.5 2.5 19.5 1.334 13.5 2.001 19.5 1.667 9.667 3 11c2 2 5.833 3.833 11.5 5.5s11.667 3 18 4 12.333 1.667 18 2 9.834-.167 12.501-1.5v130c-2.667-1.333-6.834-1.833-12.501-1.5s-11.667 1-18 2-12.333 2.333-18 4-9.5 3.5-11.5 5.5-3.833 5.833-5.5 11.5-3 11.667-4 18-1.667 12.333-2 18 .167 9.834 1.5 12.501h-260c1.333-2.667 1.833-6.834 1.5-12.501s-1-11.667-2-18-2.333-12.333-4-18-3.5-9.5-5.5-11.5-5.833-3.833-11.5-5.5-11.667-3-18-4-12.333-1.667-18-2-9.834.167-12.501 1.5V410h135v130h125V410c-2.667 1.333-6.834 1.833-12.501 1.5s-11.667-1-18-2-12.333-2.333-18-4S273 402 271 400s-3.833-6-5.5-12-3-12.5-4-19.5-1.667-13.667-2-20 .167-10.833 1.5-13.5h-50z"/><glyph glyph-name="at" unicode="@" d="M7 71c2.667 1.333 6.833 1.834 12.5 1.501s11.667-1 18-2 12.333-2.333 18-4 9.5-3.5 11.5-5.5 3.833-5.833 5.5-11.5 3-11.667 4-18 1.667-12.333 2-18S78.333 3.667 77 1h470v65H147v481h265V406H272v-70h-55V206h55v-65h275v404h-66l-4 66H71v-65l-64-1V71zm351.999 264.001h72v-130h-72v130z"/><glyph glyph-name="A" unicode="A" d="m59 470 .004-470h135v200h130V0h135v470c-2.667-1.333-6.834-1.833-12.501-1.5s-11.667 1-18 2-12.333 2.333-18 4-9.5 3.5-11.5 5.5c-1.333.667-2.333 4-3 10s-1.334 12.5-2.001 19.5-1.5 13.5-2.5 19.5-1.833 9.667-2.5 11c-1.333.667-5 1.5-11 2.5s-12.5 1.833-19.5 2.5-13.5 1.334-19.5 2.001-9.333 1.667-10 3c-2 2-3.833 5.833-5.5 11.5s-3 11.667-4 18-1.667 12.333-2 18 .167 9.834 1.5 12.501h-120c1.333-2.667 1.833-6.834 1.5-12.501s-1-11.667-2-18-2.333-12.333-4-18-3.5-9.5-5.5-11.5c-1.333-1.333-5-2.333-11-3s-12.5-1.334-19.5-2.001-13.5-1.5-19.5-2.5-9.333-1.833-10-2.5c-1.333-1.333-2.333-5-3-11s-1.334-12.5-2.001-19.5-1.5-13.5-2.5-19.5-1.833-9.333-2.5-10c-2-2-5.833-3.833-11.5-5.5s-11.667-3-18-4-12.333-1.667-18-2-9.834.167-12.501 1.5zm140.004 0h120V280h-120v190z"/><glyph glyph-name="B" unicode="B" d="M62 610V-.002h330c-1.333 2.667-1.833 6.834-1.5 12.501s1 11.667 2 18 2.333 12.333 4 18 3.5 9.5 5.5 11.5 5.833 3.833 11.5 5.5 11.667 3 18 4 12.333 1.667 18 2 9.834-.167 12.501-1.5v205h-60v60h60v205c-2.667-1.333-6.834-1.833-12.501-1.5s-11.667 1-18 2-12.333 2.333-18 4-9.5 3.5-11.5 5.5-3.833 5.833-5.5 11.5-3 11.667-4 18-1.667 12.333-2 18 .167 9.834 1.5 12.501H62zm140-340.002h120v-200H202v200zm0 270h120v-200H202v200z"/><glyph glyph-name="C" unicode="C" d="M59 70c2.667 1.333 6.834 1.833 12.501 1.5s11.667-1 18-2 12.333-2.333 18-4 9.5-3.5 11.5-5.5 3.833-5.833 5.5-11.5 3-11.667 4-18 1.667-12.333 2-18-.167-9.834-1.5-12.501h260c-1.333 2.667-1.833 6.834-1.5 12.501s1 11.667 2 18 2.333 12.333 4 18 3.5 9.5 5.5 11.5 5.833 3.833 11.5 5.5 11.667 3 18 4 12.333 1.667 18 2 9.834-.167 12.501-1.5v130h-135V70h-125v470h125V410h135v130c-2.667-1.333-6.834-1.833-12.501-1.5s-11.667 1-18 2-12.333 2.333-18 4-9.5 3.5-11.5 5.5-3.833 5.833-5.5 11.5-3 11.667-4 18-1.667 12.333-2 18 .167 9.834 1.5 12.501h-260c1.333-2.667 1.833-6.834 1.5-12.501s-1-11.667-2-18-2.333-12.333-4-18-3.5-9.5-5.5-11.5-5.833-3.833-11.5-5.5-11.667-3-18-4-12.333-1.667-18-2-9.834.167-12.501 1.5V70z"/><glyph glyph-name="D" unicode="D" d="M54 610V-.004h260c-1.333 2.667-1.833 6.834-1.5 12.501s1 11.667 2 18 2.333 12.333 4 18 3.5 9.5 5.5 11.5c.667.667 4 1.5 10 2.5s12.5 1.833 19.5 2.5 13.5 1.334 19.5 2.001 9.667 1.667 11 3c.667.667 1.5 4 2.5 10s1.833 12.5 2.5 19.5 1.334 13.5 2.001 19.5 1.667 9.667 3 11c2 2 5.833 3.833 11.5 5.5s11.667 3 18 4 12.333 1.667 18 2 9.834-.167 12.501-1.5v330c-2.667-1.333-6.834-1.833-12.501-1.5s-11.667 1-18 2-12.333 2.333-18 4-9.5 3.5-11.5 5.5c-1.333.667-2.333 4-3 10s-1.334 12.5-2.001 19.5-1.5 13.5-2.5 19.5-1.833 9.667-2.5 11c-1.333.667-5 1.5-11 2.5s-12.5 1.833-19.5 2.5-13.5 1.334-19.5 2.001-9.333 1.667-10 3c-2 2-3.833 5.833-5.5 11.5s-3 11.667-4 18-1.667 12.333-2 18 .167 9.834 1.5 12.501H54zm140-70.004 50 .002c-1.333-2.667-1.833-6.834-1.5-12.501s1-11.667 2-18 2.333-12.333 4-18 3.5-9.5 5.5-11.5 5.833-3.833 11.5-5.5 11.667-3 18-4 12.333-1.667 18-2 9.834.167 12.501 1.5v-330c-2.667 1.333-6.834 1.833-12.501 1.5s-11.667-1-18-2-12.333-2.333-18-4-9.5-3.5-11.5-5.5-3.833-5.833-5.5-11.5-3-11.667-4-18-1.667-12.333-2-18 .167-9.834 1.5-12.501h-50v470z"/><glyph glyph-name="E" unicode="E" d="M59 610V0h400v65H199v210h190v60H199v210h260v65H59z"/><glyph glyph-name="F" unicode="F" d="M59 610V0h135v275h195v60H199v210h260v65H59z"/><glyph glyph-name="G" unicode="G" d="M59 70c2.667 1.333 6.835 1.834 12.502 1.501s11.667-1 18-2 12.333-2.333 18-4 9.5-3.5 11.5-5.5 3.833-5.833 5.5-11.5 3-11.667 4-18 1.667-12.333 2-18-.167-9.834-1.5-12.501h330v270h-200v-65h60V70h-120v470h125V410h135v130c-2.667-1.333-6.834-1.833-12.501-1.5s-11.667 1-18 2-12.333 2.333-18 4-9.5 3.5-11.5 5.5-3.833 5.833-5.5 11.5-3 11.667-4 18-1.667 12.333-2 18 .167 9.834 1.5 12.501h-260c1.333-2.667 1.833-6.834 1.5-12.501s-1-11.667-2-18-2.333-12.333-4-18-3.5-9.5-5.5-11.5-5.833-3.833-11.5-5.5-11.667-3-18-4-12.333-1.667-18-2-9.834.167-12.501 1.5V70z"/><glyph glyph-name="H" unicode="H" d="M59 610V0h135v270h130V0h135v610H324V340H194v270H59z"/><glyph glyph-name="I" unicode="I" d="M124 65V0h260v65h-60v480h60v65H124v-65h60V65h-60z"/><glyph glyph-name="J" unicode="J" d="M59 70c2.667 1.333 6.832 1.833 12.499 1.5s11.667-1 18-2 12.333-2.333 18-4 9.5-3.5 11.5-5.5 3.833-5.833 5.5-11.5 3-11.667 4-18 1.667-12.333 2-18-.167-9.834-1.5-12.501h260c-1.333 2.667-1.833 6.834-1.5 12.501s1 11.667 2 18 2.333 12.333 4 18 3.5 9.5 5.5 11.5 5.833 3.833 11.5 5.5 11.667 3 18 4 12.333 1.667 18 2 9.834-.167 12.501-1.5v540H324V70H194v130H59V70z"/><glyph glyph-name="K" unicode="K" d="M56 610V0h135v270h60V135h70V0h135v135h-65v140h-65v60h65v140h65v135H321V475h-70V340h-60v270H56z"/><glyph glyph-name="L" unicode="L" d="M59 610V0h400v65H194v545H59z"/><glyph glyph-name="M" unicode="M" d="M44 610V0h135v405h55v70h-55v135H44zm335-210 .002-400h135v610h-135V480c-2.667 1.333-7.167 1.833-13.5 1.5s-13-1-20-2-13.5-2.333-19.5-4-10-3.5-12-5.5c-1.333-1.333-2.333-5-3-11s-1.334-12.5-2.001-19.5-1.5-13.5-2.5-19.5-1.833-9.333-2.5-10c-2-2-5.833-3.833-11.5-5.5s-11.667-3-18-4-12.333-1.667-18-2-9.834.167-12.501 1.5V210h65v190h70z"/><glyph glyph-name="N" unicode="N" d="M56 610V0h135v350l200-176V0h135v610H391V309L191 500v110H56z"/><glyph glyph-name="O" unicode="O" d="M75 69c2.667 1.333 6.834 1.833 12.501 1.5s11.667-1 18-2 12.333-2.333 18-4 9.5-3.5 11.5-5.5 3.833-5.833 5.5-11.5 3-11.667 4-18 1.667-12.333 2-18-.167-9.834-1.5-12.501h260c-1.333 2.667-1.833 6.834-1.5 12.501s1 11.667 2 18 2.333 12.333 4 18 3.5 9.5 5.5 11.5 5.833 3.833 11.5 5.5 11.667 3 18 4 12.333 1.667 18 2 9.834-.167 12.501-1.5v470c-2.667-1.333-6.834-1.833-12.501-1.5s-11.667 1-18 2-12.333 2.333-18 4-9.5 3.5-11.5 5.5-3.833 5.833-5.5 11.5-3 11.667-4 18-1.667 12.333-2 18 .167 9.834 1.5 12.501h-260c1.333-2.667 1.833-6.834 1.5-12.501s-1-11.667-2-18-2.333-12.333-4-18-3.5-9.5-5.5-11.5-5.833-3.833-11.5-5.5-11.667-3-18-4-12.333-1.667-18-2-9.834.167-12.501 1.5V69zm140 470h120V69H215v470z"/><glyph glyph-name="P" unicode="P" d="M57 615V0h139v275h200v60h65v209l-65 1v70H57zm139-71h129V335H196v209z"/><glyph glyph-name="Q" unicode="Q" d="M247 0c-1.333-2.667-1.832-7.165-1.499-13.498s1-13 2-20 2.333-13.5 4-19.5 3.5-10 5.5-12c.667-1.333 4-2.333 10-3s12.5-1.334 19.5-2.001 13.5-1.5 19.5-2.5 9.667-1.833 11-2.5c2-2 3.833-5.833 5.5-11.5s3-11.667 4-18 1.667-12.333 2-18-.167-9.834-1.5-12.501h130v65h-60V70h60v475c-2.667-1.333-6.834-1.833-12.501-1.5s-11.667 1-18 2-12.333 2.333-18 4S399 553 397 555s-3.833 5.833-5.5 11.5-3 11.667-4 18-1.667 12.333-2 18 .167 9.834 1.5 12.501H127c1.333-2.667 1.833-6.834 1.5-12.501s-1-11.667-2-18-2.333-12.333-4-18S119 557 117 555s-5.833-3.833-11.5-5.5-11.667-3-18-4-12.333-1.667-18-2-9.834.167-12.501 1.5V75c2.667 1.333 6.834 1.833 12.501 1.5s11.667-1 18-2 12.333-2.333 18-4S115 67 117 65s3.833-6 5.5-12 3-12.5 4-19.5 1.667-13.667 2-20S128.333 2.667 127 0h120zm-49.999 545.002h120v-470h-120v470z"/><glyph glyph-name="R" unicode="R" d="m79 610 .001-610h135v270h55c-1.333-2.667-1.833-6.834-1.5-12.501s1-11.667 2-18 2.333-12.333 4-18 3.5-9.5 5.5-11.5 6-3.833 12-5.5 12.5-3 19.5-4 13.667-1.667 20-2 10.833.167 13.5 1.5v-200h135v205h-60v130h60v205c-2.667-1.333-6.834-1.833-12.501-1.5s-11.667 1-18 2-12.333 2.333-18 4-9.5 3.5-11.5 5.5-3.833 5.833-5.5 11.5-3 11.667-4 18-1.667 12.333-2 18 .167 9.834 1.5 12.501H79zm140.001-70h120V340h-120v200z"/><glyph glyph-name="S" unicode="S" d="M51 70c2.667 1.333 6.832 1.834 12.499 1.501s11.667-1 18-2 12.333-2.333 18-4 9.5-3.5 11.5-5.5 3.833-5.833 5.5-11.5 3-11.667 4-18 1.667-12.333 2-18-.167-9.834-1.5-12.501h260c-1.333 2.667-1.833 6.834-1.5 12.501s1 11.667 2 18 2.333 12.333 4 18 3.5 9.5 5.5 11.5 5.833 3.833 11.5 5.5 11.667 3 18 4 12.333 1.667 18 2 9.834-.167 12.501-1.5v130c-2.667-1.333-6.834-1.833-12.501-1.5s-11.667 1-18 2-12.333 2.333-18 4-9.5 3.5-11.5 5.5c-1.333.667-2.333 4-3 10s-1.334 12.5-2.001 19.5-1.5 13.5-2.5 19.5-1.833 9.667-2.5 11c-2 2-6 3.833-12 5.5s-12.5 3-19.5 4-13.667 1.667-20 2-10.833-.167-13.5-1.5v50c-2.667-1.333-7.334-2-14.001-2-6 0-12.5.5-19.5 1.5s-13.5 2.5-19.5 4.5-10 4-12 6-4 6-6 12-3.5 12.5-4.5 19.5-1.5 13.5-1.5 19.5c0 6.667.667 11.334 2 14.001h-50v135h125v-60h135v60c-2.667-1.333-6.834-1.833-12.501-1.5s-11.667 1-18 2-12.333 2.333-18 4-9.5 3.5-11.5 5.5-3.833 5.833-5.5 11.5-3 11.667-4 18-1.667 12.333-2 18 .167 9.834 1.5 12.501h-260c1.333-2.667 1.833-6.834 1.5-12.501s-1-11.667-2-18-2.333-12.333-4-18-3.5-9.5-5.5-11.5-5.833-3.833-11.5-5.5-11.667-3-18-4-12.333-1.667-18-2-9.834.167-12.501 1.5v-130c2.667 1.333 6.834 1.833 12.501 1.5s11.667-1 18-2 12.333-2.333 18-4 9.5-3.5 11.5-5.5c.667-1.333 1.5-5 2.5-11s1.833-12.5 2.5-19.5 1.334-13.5 2.001-19.5 1.667-9.333 3-10c2-2 5.833-3.833 11.5-5.5s11.667-3 18-4 12.333-1.667 18-2 9.834.167 12.501 1.5c-1.333-2-1.666-5.5-.999-10.5s1.5-10.167 2.5-15.5 2.333-10.333 4-15 3.167-7.667 4.5-9 4.333-2.833 9-4.5 9.667-3 15-4 10.5-1.833 15.5-2.5 8.5-.334 10.5.999c-1.333-2.667-1.833-6.834-1.5-12.501s1-11.667 2-18 2.333-12.333 4-18 3.5-9.5 5.5-11.5 5.833-3.833 11.5-5.5 11.667-3 18-4 12.333-1.667 18-2 9.834.167 12.501 1.5V70H186v60H51V70z"/><glyph glyph-name="T" unicode="T" d="M194 545V0h130v545h135v65H59v-65h135z"/><glyph glyph-name="U" unicode="U" d="M56 70c2.667 1.333 6.832 1.833 12.499 1.5s11.667-1 18-2 12.333-2.333 18-4 9.5-3.5 11.5-5.5 3.833-5.833 5.5-11.5 3-11.667 4-18 1.667-12.333 2-18-.167-9.834-1.5-12.501h260c-1.333 2.667-1.833 6.834-1.5 12.501s1 11.667 2 18 2.333 12.333 4 18 3.5 9.5 5.5 11.5 5.833 3.833 11.5 5.5 11.667 3 18 4 12.333 1.667 18 2 9.834-.167 12.501-1.5v540H321V70H191v540H56V70z"/><glyph glyph-name="V" unicode="V" d="M54 140c2.667 1.333 6.83 1.833 12.497 1.5s11.667-1 18-2 12.333-2.333 18-4 9.5-3.5 11.5-5.5c.667-1.333 1.5-5 2.5-11s1.833-12.5 2.5-19.5 1.334-13.5 2.001-19.5 1.667-9.333 3-10c.667-1.333 4-2.333 10-3s12.5-1.334 19.5-2.001 13.5-1.5 19.5-2.5 9.667-1.833 11-2.5c2-2 3.833-5.833 5.5-11.5s3-11.667 4-18 1.667-12.333 2-18-.167-9.834-1.5-12.501h120c-1.333 2.667-1.833 6.834-1.5 12.501s1 11.667 2 18 2.333 12.333 4 18 3.5 9.5 5.5 11.5c.667.667 4 1.5 10 2.5s12.5 1.833 19.5 2.5 13.5 1.334 19.5 2.001 9.667 1.667 11 3c.667.667 1.5 4 2.5 10s1.833 12.5 2.5 19.5S390.332 113 391 119s1.667 9.667 3 11c2 2 5.833 3.833 11.5 5.5s11.667 3 18 4 12.333 1.667 18 2 9.834-.167 12.501-1.5v470H319V140H189v470H54V140z"/><glyph glyph-name="W" unicode="W" d="M119 205V0h130v205h65v195h-65V210h-60v400H54V205h65zm205 0V0h135v205h65v405H389V205h-65z"/><glyph glyph-name="X" unicode="X" d="M56 200V.001h135v270h55c-1.333-2.667-1.833-6.834-1.5-12.501s1-11.667 2-18 2.333-12.333 4-18S254 212 256 210s6-3.833 12-5.5 12.5-3 19.5-4 13.667-1.667 20-2 10.833.167 13.5 1.5V0h135v200c-2.667-1.333-6.834-1.833-12.501-1.5s-11.667 1-18 2-12.333 2.333-18 4-9.5 3.5-11.5 5.5c-1.333.667-2.333 4-3 10s-1.334 12.5-2.001 19.5-1.5 13.5-2.5 19.5-1.833 9.667-2.5 11c-2 2-5.833 3.833-11.5 5.5s-11.667 3-18 4-12.333 1.667-18 2-9.834-.167-12.501-1.5v120c2.667-1.333 6.834-1.833 12.501-1.5s11.667 1 18 2 12.333 2.333 18 4 9.5 3.5 11.5 5.5c.667.667 1.5 4 2.5 10s1.833 12.5 2.5 19.5 1.334 13.5 2.001 19.5 1.667 9.667 3 11c2 2 5.833 3.833 11.5 5.5s11.667 3 18 4 12.333 1.667 18 2 9.834-.167 12.501-1.5v130H321V410h-70v65h-60v135H56V480c2.667 1.333 6.834 1.833 12.501 1.5s11.667-1 18-2 12.333-2.333 18-4 9.5-3.5 11.5-5.5c.667-1.333 1.5-5 2.5-11s1.833-12.5 2.5-19.5 1.334-13.5 2.001-19.5 1.667-9.333 3-10c2-2 5.833-3.833 11.5-5.5s11.667-3 18-4 12.333-1.667 18-2 9.834.167 12.501 1.5V280c-2.667 1.333-6.834 1.833-12.501 1.5s-11.667-1-18-2-12.333-2.333-18-4-9.5-3.5-11.5-5.5c-1.333-1.333-2.333-5-3-11s-1.334-12.5-2.001-19.5-1.5-13.5-2.5-19.5-1.833-9.333-2.5-10c-2-2-5.833-3.833-11.5-5.5s-11.667-3-18-4-12.333-1.667-18-2-9.834.167-12.501 1.5z"/><glyph glyph-name="Y" unicode="Y" d="M189 275V0h130v275h70v60h65v275H319V340H189v270H54V335h65v-60h70z"/><glyph glyph-name="Z" unicode="Z" d="M56 200 56.002-.001h400v65h-260v140h50c-1.333 2.667-2 7-2 13 0 6.667.5 13.5 1.5 20.5s2.5 13.5 4.5 19.5 4 10 6 12 6 4 12 6 12.5 3.5 19.5 4.5 13.5 1.5 19.5 1.5c6.667 0 11.334-.667 14.001-2v50c2.667-1.333 7.167-1.833 13.5-1.5s13 1 20 2 13.5 2.333 19.5 4 10 3.5 12 5.5c.667.667 1.5 4 2.5 10s1.833 12.5 2.5 19.5 1.334 13.5 2 19.5 1.668 9.667 3 11c2 2 5.834 3.833 11.5 5.5s11.668 3 18 4 12.334 1.667 18 2 9.835-.167 12.502-1.5v200h-400v-65h260v-135c-2.667 1.333-6.834 1.833-12.501 1.5s-11.667-1-18-2-12.333-2.333-18-4-9.5-3.5-11.5-5.5-3.833-5.833-5.5-11.5-3-11.667-4-18-1.667-12.333-2-18 .167-9.834 1.5-12.501c-2 .667-5.5.834-10.5.501s-10.167-1-15.5-2-10.333-2.167-15-3.5-7.667-3-9-5-2.833-5.167-4.5-9.5-3-9.166-4-14.499-1.833-10.5-2.5-15.5-.334-8.5.999-10.5c-2.667 1.333-6.834 1.833-12.501 1.5s-11.667-1-18-2-12.333-2.333-18-4-9.5-3.5-11.5-5.5c-1.333-1.333-2.333-5-3-11s-1.334-12.5-2.001-19.5-1.5-13.5-2.5-19.5-1.833-9.333-2.5-10c-2-2-5.833-3.833-11.5-5.5s-11.667-3-18-4-12.333-1.667-18-2-9.834.167-12.501 1.5z"/><glyph glyph-name="bracketleft" unicode="[" d="M121 623v-798h269v55H260v678h130v65H121z"/><glyph glyph-name="backslash" unicode="\" d="m372-60 110-3-2 53-314 625-84 2v-99z"/><glyph glyph-name="bracketright" unicode="]" d="M166-132v-55h260v810H166v-65h120v-690H166z"/><glyph glyph-name="asciicircum" unicode="^" d="M208 717v-60h-60v-60H88v-60h120v60h120v-60h108v60h-48v60h-60v60H208z"/><glyph glyph-name="underscore" unicode="_" d="M0-158v-50h550v50H0z"/><glyph glyph-name="grave" unicode="`" d="M282 589v-69h140v69h-70v140H153v-70h70v-70h59z"/><glyph glyph-name="a" unicode="a" d="M59 70c2.667 1.333 6.835 1.833 12.502 1.5s11.667-1 18-2 12.333-2.333 18-4 9.5-3.5 11.5-5.5 3.833-5.833 5.5-11.5 3-11.667 4-18 1.667-12.333 2-18-.167-9.834-1.5-12.501h330v400c-2.667-1.333-6.834-1.833-12.501-1.5s-11.667 1-18 2-12.333 2.333-18 4-9.5 3.5-11.5 5.5-3.833 5.833-5.5 11.5-3 11.667-4 18-1.667 12.333-2 18 .167 9.834 1.5 12.501h-260v-65h190V275h-190c1.333-2.667 1.833-7.167 1.5-13.5s-1-13-2-20-2.333-13.5-4-19.5-3.5-10-5.5-12-5.833-3.833-11.5-5.5-11.667-3-18-4-12.333-1.667-18-2-9.834.167-12.501 1.5V70zm140.001 130h120V70h-120v130z"/><glyph glyph-name="b" unicode="b" d="M97 610 96.999-.001h330c-1.333 2.667-1.833 6.834-1.5 12.501s1 11.667 2 18 2.333 12.333 4 18 3.5 9.5 5.5 11.5 5.833 3.833 11.5 5.5 11.667 3 18 4 12.333 1.667 18 2 9.834-.167 12.501-1.5v330h-66v75H232v135H97zm139.999-210.001h120v-330h-120v330z"/><glyph glyph-name="c" unicode="c" d="M56 70c2.667 1.333 6.834 1.833 12.501 1.5s11.667-1 18-2 12.333-2.333 18-4 9.5-3.5 11.5-5.5 3.833-5.833 5.5-11.5 3-11.667 4-18 1.667-12.333 2-18-.167-9.834-1.5-12.501h260c-1.333 2.667-1.833 6.834-1.5 12.501s1 11.667 2 18 2.333 12.333 4 18 3.5 9.5 5.5 11.5 5.833 3.833 11.5 5.5 11.667 3 18 4 12.333 1.667 18 2 9.834-.167 12.501-1.5v60h-135V70h-125v330h125v-60h135v60c-2.667-1.333-6.834-1.833-12.501-1.5s-11.667 1-18 2-12.333 2.333-18 4-9.5 3.5-11.5 5.5-3.833 5.833-5.5 11.5-3 11.667-4 18-1.667 12.333-2 18 .167 9.834 1.5 12.501h-260c1.333-2.667 1.833-6.834 1.5-12.501s-1-11.667-2-18-2.333-12.333-4-18-3.5-9.5-5.5-11.5-5.833-3.833-11.5-5.5-11.667-3-18-4-12.333-1.667-18-2-9.834.167-12.501 1.5V70z"/><glyph glyph-name="d" unicode="d" d="M59 70c2.667 1.333 6.834 1.834 12.501 1.501s11.667-1 18-2 12.333-2.333 18-4 9.5-3.5 11.5-5.5 3.833-5.833 5.5-11.5 3-11.667 4-18 1.667-12.333 2-18-.167-9.834-1.5-12.501h330v610h-135V475h-195c1.333-2.667 1.833-7.167 1.5-13.5s-1-13-2-20-2.333-13.5-4-19.5-3.5-10-5.5-12-5.833-3.833-11.5-5.5-11.667-3-18-4-12.333-1.667-18-2-9.834.167-12.501 1.5V70zm140 330.001h120v-330H199v330z"/><glyph glyph-name="e" unicode="e" d="M51 70c2.667 1.333 6.835 1.834 12.502 1.501s11.667-1 18-2 12.333-2.333 18-4 9.5-3.5 11.5-5.5 3.833-5.833 5.5-11.5 3-11.667 4-18 1.667-12.333 2-18-.167-9.834-1.5-12.501h260v65h-190v140h260v195c-2.667-1.333-6.834-1.833-12.501-1.5s-11.667 1-18 2-12.333 2.333-18 4-9.5 3.5-11.5 5.5-3.833 5.833-5.5 11.5-3 11.667-4 18-1.667 12.333-2 18 .167 9.834 1.5 12.501h-260c1.333-2.667 1.833-6.834 1.5-12.501s-1-11.667-2-18-2.333-12.333-4-18-3.5-9.5-5.5-11.5-5.833-3.833-11.5-5.5-11.667-3-18-4-12.333-1.667-18-2-9.834.167-12.501 1.5V70zm140.001 330.001h120v-120h-120v120z"/><glyph glyph-name="f" unicode="f" d="M124 275V0h130v275h209v61H255v211h208v67H196v-68h-72V335H54v-60h70z"/><glyph glyph-name="g" unicode="g" d="M62-140v-54.999h335v55h65v615H132c1.333-2.667 1.833-6.834 1.5-12.501s-1-11.667-2-18-2.333-12.333-4-18S124 417 122 415s-5.833-3.833-11.5-5.5-11.667-3-18-4-12.333-1.667-18-2-9.834.167-12.501 1.5V75c2.667 1.333 6.834 1.833 12.501 1.5s11.667-1 18-2 12.333-2.333 18-4S120 67 122 65s3.833-6 5.5-12 3-12.5 4-19.5 1.667-13.667 2-20S133.333 2.667 132 0h190v-140H62zm140 545.001h120v-330H202v330z"/><glyph glyph-name="h" unicode="h" d="m62 610 .001-610h135v400h130V0h135v400c-2.667-1.333-6.834-1.833-12.501-1.5s-11.667 1-18 2-12.333 2.333-18 4S404 408 402 410s-3.833 6-5.5 12-3 12.5-4 19.5-1.667 13.667-2 20 .167 10.833 1.5 13.5H197v135H62z"/><glyph glyph-name="i" unicode="i" d="M59 65V0h400v65H324v405H59v-65h130V65H59zm140 595V550h120v110H199z"/><glyph glyph-name="j" unicode="j" d="M59-155v-55h265v55h65v615H129v-65h120v-550H59zm200 805V540h130v110H259z"/><glyph glyph-name="k" unicode="k" d="M62 610 62.003.001h135v200h55c-1.333-2.667-1.833-6.834-1.5-12.501s1-11.667 2-18 2.333-12.333 4-18 3.5-9.5 5.5-11.5 6-3.833 12-5.5 12.5-3 19.5-4 13.667-1.667 20-2 10.833.167 13.5 1.5V0h135v130c-2.667-1.333-6.834-1.833-12.501-1.5s-11.667 1-18 2-12.333 2.333-18 4-9.5 3.5-11.5 5.5c-1.333.667-2.333 4-3 10s-1.334 12.5-2.001 19.5-1.5 13.5-2.5 19.5-1.833 9.667-2.5 11c-2 2-5.833 3.833-11.5 5.5s-11.667 3-18 4-12.333 1.667-18 2-9.834-.167-12.501-1.5v65h65v60h65v135H327V335h-65c1.333-2 1.833-5.667 1.5-11s-1-11-2-17-2.333-11.5-4-16.5S254 282 252 280s-5.667-2-11 0-10.833 4.5-16.5 7.5L208 296c-5.333 2.667-9 4-11 4v310H62z"/><glyph glyph-name="l" unicode="l" d="M59 65V0h400v65H324v545H59v-65h130V65H59z"/><glyph glyph-name="m" unicode="m" d="M59 470V0h135v400h60V70h70v330h70V0h135v400h-65v70H59z"/><glyph glyph-name="n" unicode="n" d="M59 470V0h135v400h130V0h135v400l-65 7v63H59z"/><glyph glyph-name="o" unicode="o" d="M59 70c2.667 1.333 6.834 1.833 12.501 1.5s11.667-1 18-2 12.333-2.333 18-4 9.5-3.5 11.5-5.5 3.833-5.833 5.5-11.5 3-11.667 4-18 1.667-12.333 2-18-.167-9.834-1.5-12.501h260c-1.333 2.667-1.833 6.834-1.5 12.501s1 11.667 2 18 2.333 12.333 4 18 3.5 9.5 5.5 11.5 5.833 3.833 11.5 5.5 11.667 3 18 4 12.333 1.667 18 2 9.834-.167 12.501-1.5v330c-2.667-1.333-6.834-1.833-12.501-1.5s-11.667 1-18 2-12.333 2.333-18 4-9.5 3.5-11.5 5.5-3.833 5.833-5.5 11.5-3 11.667-4 18-1.667 12.333-2 18 .167 9.834 1.5 12.501h-260c1.333-2.667 1.833-6.834 1.5-12.501s-1-11.667-2-18-2.333-12.333-4-18-3.5-9.5-5.5-11.5-5.833-3.833-11.5-5.5-11.667-3-18-4-12.333-1.667-18-2-9.834.167-12.501 1.5V70zm140 330h120V70H199v330z"/><glyph glyph-name="p" unicode="p" d="m56 470 .002-664.001h134v193h193c-1.333 2.667-1.833 7.167-1.5 13.5s1 12.833 2 19.5 2.333 13 4 19 3.5 10.333 5.5 13c2 2 5.667 3.833 11 5.5s11.166 3 17.499 4 12.166 1.5 17.499 1.5c6 0 10.333-.333 13-1v326c-2.667-1.333-6.834-1.833-12.501-1.5s-11.667 1-18 2-12.166 2.333-17.499 4-9 3.5-11 5.5-3.833 5.833-5.5 11.5-3 11.667-4 18-1.667 12.333-2 18 .167 9.834 1.5 12.501H56zm139.002-70.001h118v-326h-118v326z"/><glyph glyph-name="q" unicode="q" d="m324 1-.004-194.002h135v664h-327c.667-2.667 1.334-7.667 2.001-15s1-15 1-23-.333-15.167-1-21.5-2-9.5-4-9.5c-2.667 0-7.167-.167-13.5-.5s-13-.666-20-.999-13.833-.5-20.5-.5c-6 0-10.333.667-13 2v-327c2.667 1.333 7.334 2.333 14.001 3s13.834.834 21.501.501S113.333 77.667 120 77s11-2 13-4 3.333-6.5 4-13.5.667-14.333 0-22-1.5-15-2.5-22S132.667 3.667 132 1h192zM200.996 401.998h119v-327h-119v327z"/><glyph glyph-name="r" unicode="r" d="M62 470V0h135v276l60 1 1 58h204v135H327l1-63h-70l-2-72h-59v135H62z"/><glyph glyph-name="s" unicode="s" d="M62 65V0h330c-1.333 2.667-1.833 6.834-1.5 12.501s1 11.667 2 18 2.333 12.333 4 18 3.5 9.5 5.5 11.5 5.833 3.833 11.5 5.5 11.667 3 18 4 12.333 1.667 18 2 9.834-.167 12.501-1.5v130c-2.667-1.333-6.834-1.833-12.501-1.5s-11.667 1-18 2-12.333 2.333-18 4-9.5 3.5-11.5 5.5-3.833 6-5.5 12-3 12.5-4 19.5-1.667 13.667-2 20 .167 10.833 1.5 13.5H202v130h260v65H132c1.333-2.667 1.833-6.834 1.5-12.501s-1-11.667-2-18-2.333-12.333-4-18S124 412 122 410s-5.833-3.833-11.5-5.5-11.667-3-18-4-12.333-1.667-18-2-9.834.167-12.501 1.5V280c2.667 1.333 6.834 1.833 12.501 1.5s11.667-1 18-2 12.333-2.333 18-4S120 272 122 270s3.833-6 5.5-12 3-12.5 4-19.5 1.667-13.667 2-20-.167-10.833-1.5-13.5h190V65H62z"/><glyph glyph-name="t" unicode="t" d="M124 70c2.667 1.333 7.167 1.834 13.5 1.501s13-1 20-2 13.5-2.333 19.5-4 10-3.5 12-5.5 3.833-5.833 5.5-11.5 3-11.667 4-18 1.667-12.333 2-18S200.333 2.667 199 0h260v65H259v340h200v70H254v135H124V475H59v-70h65V70z"/><glyph glyph-name="u" unicode="u" d="M59 70c2.667 1.333 6.833 1.834 12.5 1.501s11.667-1 18-2 12.333-2.333 18-4 9.5-3.5 11.5-5.5 3.833-5.833 5.5-11.5 3-11.667 4-18 1.667-12.333 2-18S130.333 2.667 129 0h330v470H324V70H194v400H59V70z"/><glyph glyph-name="v" unicode="v" d="M59 140c2.667 1.333 6.83 1.833 12.497 1.5s11.667-1 18-2 12.333-2.333 18-4 9.5-3.5 11.5-5.5c.667-1.333 1.5-5 2.5-11s1.833-12.5 2.5-19.5 1.334-13.5 2.001-19.5 1.667-9.333 3-10c.667-1.333 4-2.333 10-3s12.5-1.334 19.5-2.001 13.5-1.5 19.5-2.5 9.667-1.833 11-2.5c2-2 3.833-5.833 5.5-11.5s3-11.667 4-18 1.667-12.333 2-18-.167-9.834-1.5-12.501h120c-1.333 2.667-1.833 6.834-1.5 12.501s1 11.667 2 18 2.333 12.333 4 18 3.5 9.5 5.5 11.5c.667.667 4 1.5 10 2.5s12.5 1.833 19.5 2.5 13.5 1.334 19.5 2.001 9.667 1.667 11 3c.667.667 1.5 4 2.5 10s1.833 12.5 2.5 19.5S395.332 113 396 119s1.667 9.667 3 11c2 2 5.833 3.833 11.5 5.5s11.667 3 18 4 12.333 1.667 18 2 9.834-.167 12.501-1.5v330H324V140H194v330H59V140z"/><glyph glyph-name="w" unicode="w" d="M113 133V0h129v133h64v263h-64V139h-59v326H48V133h65zm203 0V0h134v133h64v332H381V133h-65z"/><glyph glyph-name="x" unicode="x" d="m59 130 .006-130h135v130h130V0h135v130c-2.667-1.333-6.834-1.833-12.501-1.5s-11.667 1-18 2-12.333 2.333-18 4-9.5 3.5-11.5 5.5c-1.333.667-2.333 4-3 10s-1.334 12.5-2.001 19.5-1.5 13.5-2.5 19.5-1.833 9.667-2.5 11c-2 2-5.833 3.833-11.5 5.5s-11.667 3-18 4-12.333 1.667-18 2-9.834-.167-12.501-1.5v65h65v60h65v135h-135V340h-130v130h-135V335h65v-60h65v-65c-2.667 1.333-6.834 1.833-12.501 1.5s-11.667-1-18-2-12.333-2.333-18-4-9.5-3.5-11.5-5.5c-1.333-1.333-2.333-5-3-11s-1.334-12.5-2.001-19.5-1.5-13.5-2.5-19.5-1.833-9.333-2.5-10c-2-2-5.833-3.833-11.5-5.5s-11.667-3-18-4-12.333-1.667-18-2-9.834.167-12.501 1.5z"/><glyph glyph-name="y" unicode="y" d="m22-141-.002-55h265v50c2.667-1.333 7.167-1.833 13.5-1.5s13 1 20 2 13.5 2.333 19.5 4 10 3.5 12 5.5c.667.667 1.5 4 2.5 10s1.833 12.5 2.5 19.5 1.334 13.5 2.001 19.5 1.667 9.667 3 11c2 2 6 3.833 12 5.5s12.5 3 19.5 4 13.667 1.667 20 2 10.833-.167 13.5-1.5V69h65v405h-135V74h-130v400h-135V74c2.667 1.333 6.834 1.833 12.501 1.5s11.667-1 18-2 12.333-2.333 18-4S150 66 152 64s3.833-6 5.5-12 3-12.5 4-19.5 1.667-13.667 2-20S163.333 1.667 162-1h120v-70h-55v-70H22z"/><glyph glyph-name="z" unicode="z" d="M59 130 59.001.001h400v65h-260v70h50c-1.333 2.667-1.833 7.167-1.5 13.5s1 13 2 20 2.333 13.5 4 19.5 3.5 10 5.5 12c.667.667 4 1.5 10 2.5s12.5 1.833 19.5 2.5 13.5 1.334 19.5 2.001 9.667 1.667 11 3c.667.667 1.5 4 2.5 10s1.833 12.5 2.5 19.5 1.334 13.5 2.001 19.5 1.667 9.667 3 11c2 2 6 3.833 12 5.5s12.5 3 19.5 4 13.667 1.667 20 2 10.833-.167 13.5-1.5v55h65v135h-400v-65h260v-70h-60c.667-2 1-5.667 1-11s-.5-11-1.5-17-2.333-11.5-4-16.5-3.5-8.5-5.5-10.5c-1.333-2-4.333-3.833-9-5.5s-9.667-3-15-4-10.5-1.667-15.5-2-8.5.167-10.5 1.5c1.333-2.667 1.833-6.834 1.5-12.501s-1-11.667-2-18-2.333-12.333-4-18-3.5-9.5-5.5-11.5c-1.333-1.333-5-2.333-11-3s-12.5-1.334-19.5-2.001-13.5-1.5-19.5-2.5-9.333-1.833-10-2.5c-1.333-1.333-2.333-5-3-11s-1.334-12.5-2.001-19.5-1.5-13.5-2.5-19.5-1.833-9.333-2.5-10c-2-2-5.833-3.833-11.5-5.5s-11.667-3-18-4-12.333-1.667-18-2-9.834.167-12.501 1.5z"/><glyph glyph-name="braceleft" unicode="{" d="M240-47v-65h135v65h-65v205h-68v75h-57v65h60v65h65v199h65v65H240v-65h-60V363h-70v-65H45v-65h66v-75h69V-47h60z"/><glyph glyph-name="bar" unicode="|" d="M228 611v-810h120v810H228z"/><glyph glyph-name="braceright" unicode="}" d="M101-61v-65h139v70h75v200h72v80h63v65h-65v76h-70v200h-77v65H99v-65h71V365h78l2-76h60v-65h-59v-75h-79V-61h-71z"/><glyph glyph-name="asciitilde" unicode="~" d="M1 557V423h61v65h67v68h77v-68h60v-65h216v65h59v135h-60v-63h-80v-67h-60v68h-80v71H66v-75H1z"/><glyph glyph-name="uni0091" d="M266 600h132v-66h-68v-68h68V333H198v201h68v66z"/><glyph glyph-name="uni0092" d="M200 600h200V401h-67v-68H200v68h66v67h-66v132z"/><glyph glyph-name="exclamdown" unicode="¡" d="M200 400h133V267H200v133zm0-200h132V67h68v-200h-67v-67H200v67h-67V67h67v133z"/><glyph glyph-name="cent" unicode="¢" d="M200 600h133V467h66v-67h67v-67H333v67H200V133h132v67h133v-66h-65V68h-67V-67H200V68h-67v65H67v267h65v68h68v132z"/><glyph glyph-name="sterling" unicode="£" d="M0 133h67v135H0v65h67v200h66v67h267v-66h66v-67H333v66H200V333h200v-65H199V134h-66V67h334V0H0v133z"/><glyph glyph-name="currency" unicode="¤" d="M200 400V267h133v133H200zM67 533h132v-66h134v66h134v-66h-67v-67h66V267h-67v-66h68v-68H333v68H200v-68H67v67h66v67H67v133h66v67H67v66z"/><glyph glyph-name="yen" unicode="¥" d="M67 600h132V401h134v199h133V401h-66v-68h66v-66H333v-67h132v-67H333V0H200v133H67v67h133v67H67v66h65v68H67v199z"/><glyph glyph-name="brokenbar" unicode="¦" d="M200 133h133v-333H200v333zm0 467h133V267H200v333z"/><glyph glyph-name="section" unicode="§" d="M148 578v-60H88V398h60V278H88V158h60V98h60V32h120v-136H208v68H88v-68h60v-66h240v66h60V32h-60v126h60v120h-60v60h-60v60H208v120h120v-60h120v60h-60v60H148zm180-300V158H208v120h120z"/><glyph glyph-name="dieresis" unicode="¨" d="M67 667h133V533H67v134zm266 0h134V533H333v134z"/><glyph glyph-name="copyright" unicode="©" d="M200 467h132v-67h68v-67h-67v68H200V200h-67v200h67v67zm-133 1V134h66V68h267v66h67v335h-67v65H132v-66H67zM0 533h66v67h399v-67h68V67h-67V0H67v67H0v466zm200-333h133v67h67v-66h-68v-67H200v66z"/><glyph glyph-name="ordfeminine" unicode="ª" d="M200 400v-67h133v67H200zm267-200v-67H67v67h400zM134 601h266v-68h67V267H132v66H67v67h65v67h201v66H134v68z"/><glyph glyph-name="guillemotleft" unicode="«" d="M266 334v-66h-68v-66h-66v-68h66V67h68V1H133v67H66v66H-1v66h67v67h66v67h134zm134 0h133v-65h-67v-67h-66v-68h64V68h69V0H400v67h-68v67h-65v66h66v66h67v68z"/><glyph glyph-name="logicalnot" unicode="¬" d="M467 333V133H332v134H67v66h400z"/><glyph glyph-name="uni00AD" unicode="­" d="M466 268H66v65h400v-65z"/><glyph glyph-name="registered" unicode="®" d="M67 467V134h66V68h267v66h66v333h-66v66H133v-66H67zm65-334v334h200v-67h68V267h-67v133H200V268h132v-68h67v-66h-67v67H199v-68h-67zM0 533h67v67h398v-67h68V67h-67V0H66v67H0v466z"/><glyph glyph-name="macron" unicode="¯" d="M0 800h532v-66H0v66z"/><glyph glyph-name="degree" unicode="°" d="M146 649v-63H79V459h67v-63h271v63h63v127h-63v63H146zm208-63V459H215v127h139z"/><glyph glyph-name="plusminus" unicode="±" d="M466 68V0H67v68h399zM200 467h133V333h133v-66H333V133H200v134H67v66h133v134z"/><glyph glyph-name="uni00B2" unicode="²" d="M133 600h200v-67h67v-66h-68v-66h-65v-68h133v-66H133v133h67v67h67v66H133v67z"/><glyph glyph-name="uni00B3" unicode="³" d="M133 600h200v-67h67v-65h-67v-67h66v-67h-66v-67H133v66h134v68h-67v66h67v66H133v67z"/><glyph glyph-name="acute" unicode="´" d="M292 589v-69H152v69h70v140h199v-70h-70v-70h-59z"/><glyph glyph-name="uni00B5" unicode="µ" d="M199 467V67h134v400h132V67h68V0H400v68h-67V0H200v-132h-67v-68H0v67h67v600h132z"/><glyph glyph-name="paragraph" unicode="¶" d="M533 600v-67h-67v-733H333v333H200v67h-67v67H67v200h66v66h67v67h333z"/><glyph glyph-name="periodcentered" unicode="·" d="M200 400h200V267H200v133z"/><glyph glyph-name="cedilla" unicode="¸" d="M200 0h132v-67h68v-65h-67v-68H133v67h134v66h-67V0z"/><glyph glyph-name="uni00B9" unicode="¹" d="M200 600h133V267H200v200h-67v67h67v66z"/><glyph glyph-name="ordmasculine" unicode="º" d="M135 600v-66H69V333h65v-66h268v66h66v200h-66v67H135zm331-400v-67H67v67h399zM200 333v200h133V333H200z"/><glyph glyph-name="guillemotright" unicode="»" d="M266 334v-66h68v-66h66v-68h-66V67h-68V1h133v67h67v66h67v66h-67v67h-66v67H266zm-134 0H-1v-65h67v-67h66v-68H68V68H-1V0h133v67h68v67h65v66h-66v66h-67v68z"/><glyph glyph-name="onequarter" unicode="¼" d="M67 667h132V333h68v68h66v66h66v66h134v-65h-68v-67h-66v-67h-66v-67h200V-67H400V0H200v133h-68V67H0v66h66v67h67v67h67v66H66v200H0v68h67v66zM333 67h67v66h-67V67zm-66 133h66v67h-66v-67zm-67-67h67v67h-67v-67z"/><glyph glyph-name="onehalf" unicode="½" d="M67 667h132V333h68v68h66v66h66v66h134v-65h-68v-67h-66v-67h-66v-67h132v-66h67v-67h-67V68h-65V0h133v-67H266V68h66v66h67v67H200v-68h-68V67H0v66h66v67h67v67h67v66H66v200H0v68h67v66z"/><glyph glyph-name="threequarters" unicode="¾" d="M0 667h199v-67h67v-66h-67v-67h67v-66h-67v-68h68v68h66v66h66v66h134v-65h-68v-67h-66v-67h-66v-67h199V-67H400v66H200v135h67v66h66v67h-67v-66h-66v-68h-68V67H0v66h66v67h67v67h67v66H0v68h132v67H66v65h67v68H0v66zM333 67h67v66h-67V67z"/><glyph glyph-name="questiondown" unicode="¿" d="M328 270v130H208V270h120zm1-198-.001 125h-125V77c-2.667 1.333-7.167 1.833-13.5 1.5s-13-1-20-2-13.5-2.333-19.5-4-10-3.5-12-5.5c-.667-.667-1.5-4-2.5-10s-1.833-12.5-2.5-19.5-1.334-13.5-2.001-19.5-1.667-9.667-3-11c-2-2-5.833-3.833-11.5-5.5s-11.667-3-18-4-12.333-1.667-18-2-9.834.167-12.501 1.5v-130c2.667 1.333 6.834 1.833 12.501 1.5s11.667-1 18-2 12.333-2.333 18-4 9.5-3.5 11.5-5.5 3.833-5.833 5.5-11.5 3-11.667 4-18 1.667-12.333 2-18-.167-9.834-1.5-12.501h260c-1.333 2.667-1.833 6.834-1.5 12.501s1 11.667 2 18 2.333 12.333 4 18 3.5 9.5 5.5 11.5 5.833 3.833 11.5 5.5 11.667 3 18 4 12.333 1.667 18 2 9.834-.167 12.501-1.5V-3h-135v-130h-125V-3c2.667-1.333 6.834-1.833 12.501-1.5s11.667 1 18 2 12.333 2.333 18 4S267 5 269 7s3.833 6 5.5 12 3 12.5 4 19.5 1.667 13.667 2 20-.167 10.833-1.5 13.5h50z"/><glyph glyph-name="Agrave" unicode="À" d="m59 470 .004-470h135v200h130V0h135v470c-2.667-1.333-6.834-1.833-12.501-1.5s-11.667 1-18 2-12.333 2.333-18 4-9.5 3.5-11.5 5.5c-1.333.667-2.333 4-3 10s-1.334 12.5-2.001 19.5-1.5 13.5-2.5 19.5-1.833 9.667-2.5 11c-1.333.667-5 1.5-11 2.5s-12.5 1.833-19.5 2.5-13.5 1.334-19.5 2.001-9.333 1.667-10 3c-2 2-3.833 5.833-5.5 11.5s-3 11.667-4 18-1.667 12.333-2 18 .167 9.834 1.5 12.501h-120c1.333-2.667 1.833-6.834 1.5-12.501s-1-11.667-2-18-2.333-12.333-4-18-3.5-9.5-5.5-11.5c-1.333-1.333-5-2.333-11-3s-12.5-1.334-19.5-2.001-13.5-1.5-19.5-2.5-9.333-1.833-10-2.5c-1.333-1.333-2.333-5-3-11s-1.334-12.5-2.001-19.5-1.5-13.5-2.5-19.5-1.833-9.333-2.5-10c-2-2-5.833-3.833-11.5-5.5s-11.667-3-18-4-12.333-1.667-18-2-9.834.167-12.501 1.5zm140.004 0h120V280h-120v190zm-70 333h133v-67h66v-67h-133v67h-66v67z"/><glyph glyph-name="Aacute" unicode="Á" d="m59 470 .004-470h135v200h130V0h135v470c-2.667-1.333-6.834-1.833-12.501-1.5s-11.667 1-18 2-12.333 2.333-18 4-9.5 3.5-11.5 5.5c-1.333.667-2.333 4-3 10s-1.334 12.5-2.001 19.5-1.5 13.5-2.5 19.5-1.833 9.667-2.5 11c-1.333.667-5 1.5-11 2.5s-12.5 1.833-19.5 2.5-13.5 1.334-19.5 2.001-9.333 1.667-10 3c-2 2-3.833 5.833-5.5 11.5s-3 11.667-4 18-1.667 12.333-2 18 .167 9.834 1.5 12.501h-120c1.333-2.667 1.833-6.834 1.5-12.501s-1-11.667-2-18-2.333-12.333-4-18-3.5-9.5-5.5-11.5c-1.333-1.333-5-2.333-11-3s-12.5-1.334-19.5-2.001-13.5-1.5-19.5-2.5-9.333-1.833-10-2.5c-1.333-1.333-2.333-5-3-11s-1.334-12.5-2.001-19.5-1.5-13.5-2.5-19.5-1.833-9.333-2.5-10c-2-2-5.833-3.833-11.5-5.5s-11.667-3-18-4-12.333-1.667-18-2-9.834.167-12.501 1.5zm140.004 0h120V280h-120v190zm64 267v66h134v-65h-68v-68h-131v67h65z"/><glyph glyph-name="Acircumflex" unicode="Â" d="m59 470 .004-470h135v200h130V0h135v470c-2.667-1.333-6.834-1.833-12.501-1.5s-11.667 1-18 2-12.333 2.333-18 4-9.5 3.5-11.5 5.5c-1.333.667-2.333 4-3 10s-1.334 12.5-2.001 19.5-1.5 13.5-2.5 19.5-1.833 9.667-2.5 11c-1.333.667-5 1.5-11 2.5s-12.5 1.833-19.5 2.5-13.5 1.334-19.5 2.001-9.333 1.667-10 3c-2 2-3.833 5.833-5.5 11.5s-3 11.667-4 18-1.667 12.333-2 18 .167 9.834 1.5 12.501h-120c1.333-2.667 1.833-6.834 1.5-12.501s-1-11.667-2-18-2.333-12.333-4-18-3.5-9.5-5.5-11.5c-1.333-1.333-5-2.333-11-3s-12.5-1.334-19.5-2.001-13.5-1.5-19.5-2.5-9.333-1.833-10-2.5c-1.333-1.333-2.333-5-3-11s-1.334-12.5-2.001-19.5-1.5-13.5-2.5-19.5-1.833-9.333-2.5-10c-2-2-5.833-3.833-11.5-5.5s-11.667-3-18-4-12.333-1.667-18-2-9.834.167-12.501 1.5zm140.004 0h120V280h-120v190zm-69 333h267v-66h67v-68h-134v67h-133v-66h-133v66h66v67z"/><glyph glyph-name="Atilde" unicode="Ã" d="m59 470 .004-470h135v200h130V0h135v470c-2.667-1.333-6.834-1.833-12.501-1.5s-11.667 1-18 2-12.333 2.333-18 4-9.5 3.5-11.5 5.5c-1.333.667-2.333 4-3 10s-1.334 12.5-2.001 19.5-1.5 13.5-2.5 19.5-1.833 9.667-2.5 11c-1.333.667-5 1.5-11 2.5s-12.5 1.833-19.5 2.5-13.5 1.334-19.5 2.001-9.333 1.667-10 3c-2 2-3.833 5.833-5.5 11.5s-3 11.667-4 18-1.667 12.333-2 18 .167 9.834 1.5 12.501h-120c1.333-2.667 1.833-6.834 1.5-12.501s-1-11.667-2-18-2.333-12.333-4-18-3.5-9.5-5.5-11.5c-1.333-1.333-5-2.333-11-3s-12.5-1.334-19.5-2.001-13.5-1.5-19.5-2.5-9.333-1.833-10-2.5c-1.333-1.333-2.333-5-3-11s-1.334-12.5-2.001-19.5-1.5-13.5-2.5-19.5-1.833-9.333-2.5-10c-2-2-5.833-3.833-11.5-5.5s-11.667-3-18-4-12.333-1.667-18-2-9.834.167-12.501 1.5zm140.004 0h120V280h-120v190zm-70 333h200v-66h67v66h132v-67h-67v-65h-198v65h-67v-65h-133v65h66v67z"/><glyph glyph-name="Adieresis" unicode="Ä" d="M57 770V641h134v129H57zm273 0V641h134v129H330zM198 576v-66h-68v-69H64V-1h134v180h139V-1h134v442h-66v69h-68v66H198zm139-135V239H198v202h139z"/><glyph glyph-name="Aring" unicode="Å" d="M59 470 59.003-.001h135v200h130v-200h135v470c-2.667-1.333-6.834-1.833-12.501-1.5s-11.667 1-18 2-12.333 2.333-18 4-9.5 3.5-11.5 5.5c-1.333.667-2.333 4-3 10s-1.334 12.5-2.001 19.5-1.5 13.5-2.5 19.5-1.833 9.667-2.5 11c-1.333.667-5 1.5-11 2.5s-12.5 1.833-19.5 2.5S345 546.333 339 547s-9.333 1.667-10 3c-2 2-3.833 5.833-5.5 11.5s-3 11.667-4 18-1.667 12.333-2 18 24.834 7.834 75.5 6.501v71h66v63h-65v66h-265v-65h-68v-64h65v-69c50 0 74.834-2.833 74.5-8.5s-1-11.667-2-18-2.332-12.333-4-18-3.5-9.5-5.5-11.5c-1.332-1.333-5-2.333-11-3s-12.5-1.334-19.5-2.001-13.5-1.5-19.5-2.5-9.332-1.833-10-2.5c-1.332-1.333-2.332-5-3-11s-1.333-12.5-2-19.5-1.5-13.5-2.5-19.5-1.833-9.333-2.5-10c-2-2-5.833-3.833-11.5-5.5s-11.667-3-18-4-12.333-1.667-18-2-9.834.167-12.501 1.5zm140.003-.001h120v-190h-120v190zm-5 269h133v-66h-133v66z"/><glyph glyph-name="AE" unicode="Æ" d="M267 600h266v-67H400V334h132v-66H400V67h132V0H267v201h-68V0H67v400h65v67h67v66h68v67zm-67-333h67v133h-67V267z"/><glyph glyph-name="Ccedilla" unicode="Ç" d="M59 70c2.667 1.333 6.834 1.833 12.501 1.5s11.667-1 18-2 12.333-2.333 18-4 9.5-3.5 11.5-5.5 3.833-5.833 5.5-11.5 3-11.667 4-18 1.667-12.333 2-18-.167-9.834-1.5-12.501h64v-66h72v-65h-137v-68h204v68h66v64h-67v67h58c-1.333 2.667-1.833 6.834-1.5 12.501s1 11.667 2 18 2.333 12.333 4 18 3.5 9.5 5.5 11.5 5.833 3.833 11.5 5.5 11.667 3 18 4 12.333 1.667 18 2 9.834-.167 12.501-1.5v130h-135V70h-125v470h125V410h135v130c-2.667-1.333-6.834-1.833-12.501-1.5s-11.667 1-18 2-12.333 2.333-18 4-9.5 3.5-11.5 5.5-3.833 5.833-5.5 11.5-3 11.667-4 18-1.667 12.333-2 18 .167 9.834 1.5 12.501h-260c1.333-2.667 1.833-6.834 1.5-12.501s-1-11.667-2-18-2.333-12.333-4-18-3.5-9.5-5.5-11.5-5.833-3.833-11.5-5.5-11.667-3-18-4-12.333-1.667-18-2-9.834.167-12.501 1.5V70z"/><glyph glyph-name="Egrave" unicode="È" d="M59 610V0h400v65H199v210h190v60H199v210h260v65H59zm68 195h131v-64h67v-63H191v62h-64v65z"/><glyph glyph-name="Eacute" unicode="É" d="M59 610V0h400v65H199v210h190v60H199v210h260v65H59zm201 193h132v-66h-66v-66H193v66h67v66z"/><glyph glyph-name="Ecircumflex" unicode="Ê" d="M59 610V0h400v65H199v210h190v60H199v210h260v65H59zm70 196h265v-66h67v-66H329v65H195v-66H62v67h67v66z"/><glyph glyph-name="Edieresis" unicode="Ë" d="M59 610V0h400v65H199v210h190v60H199v210h260v65H59zm3 197h132V674H62v133zm264-1h132V673H326v133z"/><glyph glyph-name="Igrave" unicode="Ì" d="M124 65V0h260v65h-60v480h60v65H124v-65h60V65h-60zm3 741h133v-67h66v-65H193v66h-66v66z"/><glyph glyph-name="Iacute" unicode="Í" d="M124 65V0h260v65h-60v480h60v65H124v-65h60V65h-60zm137 740h132v-67h-66v-66H194v65h67v68z"/><glyph glyph-name="Icircumflex" unicode="Î" d="M124 65V0h260v65h-60v480h60v65H124v-65h60V65h-60zm0 744h266v-66h67v-66H324v66H190v-66H58v65h66v67z"/><glyph glyph-name="Idieresis" unicode="Ï" d="M124 65V0h260v65h-60v480h60v65H124v-65h60V65h-60zM55 813h133V682H55v131zm267-1h132V680H322v132z"/><glyph glyph-name="Eth" unicode="Ð" d="M55 611V339.996H0v-64h54v-276h260c-1.333 2.667-1.833 6.834-1.5 12.501s1 11.667 2 18 2.333 12.333 4 18 3.5 9.5 5.5 11.5c.667.667 4 1.5 10 2.5s12.5 1.833 19.5 2.5 13.5 1.334 19.5 2.001 9.667 1.667 11 3c.667.667 1.5 4 2.5 10s1.833 12.5 2.5 19.5 1.334 13.5 2.001 19.5 1.667 9.667 3 11c2 2 5.833 3.833 11.5 5.5s11.667 3 18 4 12.333 1.667 18 2 9.834-.167 12.501-1.5v330c-2.667-1.333-6.834-1.833-12.501-1.5s-11.667 1-18 2-12.333 2.333-18 4-9.5 3.5-11.5 5.5c-1.333.667-2.333 4-3 10s-1.334 12.5-2.001 19.5-1.5 13.5-2.5 19.5-1.833 9.667-2.5 11c-1.333.667-5 1.5-11 2.5s-12.5 1.833-19.5 2.5-13.5 1.334-19.5 2.001-9.333 1.667-10 3c-2 2-3.833 5.833-5.5 11.5s-3 11.667-4 18-1.667 12.333-2 18 .167 9.834 1.5 12.501zm139-71.004 50 .002c-1.333-2.667-1.833-6.834-1.5-12.501s1-11.667 2-18 2.333-12.333 4-18 3.5-9.5 5.5-11.5 5.833-3.833 11.5-5.5 11.667-3 18-4 12.333-1.667 18-2 9.834.167 12.501 1.5v-330c-2.667 1.333-6.834 1.833-12.501 1.5s-11.667-1-18-2-12.333-2.333-18-4-9.5-3.5-11.5-5.5-3.833-5.833-5.5-11.5-3-11.667-4-18-1.667-12.333-2-18 .167-9.834 1.5-12.501h-50v205h67v65h-67v200z"/><glyph glyph-name="Ntilde" unicode="Ñ" d="M63 610 62.998-.004h135v311c2 0 5.667 1.333 11 4l16.5 8c5.667 2.667 11.167 4.834 16.5 6.501s9 1.834 11 .501 3.833-4.333 5.5-9 3-9.667 4-15 1.667-10.5 2-15.5-.167-8.5-1.5-10.5c2.667 1.333 6.834 1.833 12.501 1.5s11.667-1 18-2 12.333-2.333 18-4 9.5-3.5 11.5-5.5c.667-1.333 1.5-5 2.5-11s1.833-12.5 2.5-19.5 1.334-13.5 2.001-19.5 1.667-9.333 3-10c2-2 6-3.833 12-5.5s12.5-3 19.5-4 13.667-1.667 20-2 10.833.167 13.5 1.5v-200h135v610H398v-270h-65c1.333 2.667 1.833 6.834 1.5 12.501s-1 11.667-2 18-2.333 12.333-4 18-3.5 9.5-5.5 11.5c-1.333.667-5 1.5-11 2.5s-12.5 1.833-19.5 2.5-13.5 1.334-19.5 2-9.333 1.668-10 3c-2 2-3.833 6-5.5 12s-3 12.5-4 19.5-1.667 13.668-2 20 .167 10.834 1.5 13.5h-55v135H63zm68.998 189.996h201v-66h66l1 66h132v-66h-66v-66h-199v66h-68v-66h-134v66h67v66z"/><glyph glyph-name="Ograve" unicode="Ò" d="M75 69c2.667 1.333 6.834 1.833 12.501 1.5s11.667-1 18-2 12.333-2.333 18-4 9.5-3.5 11.5-5.5 3.833-5.833 5.5-11.5 3-11.667 4-18 1.667-12.333 2-18-.167-9.834-1.5-12.501h260c-1.333 2.667-1.833 6.834-1.5 12.501s1 11.667 2 18 2.333 12.333 4 18 3.5 9.5 5.5 11.5 5.833 3.833 11.5 5.5 11.667 3 18 4 12.333 1.667 18 2 9.834-.167 12.501-1.5v470c-2.667-1.333-6.834-1.833-12.501-1.5s-11.667 1-18 2-12.333 2.333-18 4-9.5 3.5-11.5 5.5-3.833 5.833-5.5 11.5-3 11.667-4 18-1.667 12.333-2 18 .167 9.834 1.5 12.501h-260c1.333-2.667 1.833-6.834 1.5-12.501s-1-11.667-2-18-2.333-12.333-4-18-3.5-9.5-5.5-11.5-5.833-3.833-11.5-5.5-11.667-3-18-4-12.333-1.667-18-2-9.834.167-12.501 1.5V69zm140 470h120V69H215v470zm-73 269h133v-66h67v-68H209v68h-67v66z"/><glyph glyph-name="Oacute" unicode="Ó" d="M75 69c2.667 1.333 6.834 1.833 12.501 1.5s11.667-1 18-2 12.333-2.333 18-4 9.5-3.5 11.5-5.5 3.833-5.833 5.5-11.5 3-11.667 4-18 1.667-12.333 2-18-.167-9.834-1.5-12.501h260c-1.333 2.667-1.833 6.834-1.5 12.501s1 11.667 2 18 2.333 12.333 4 18 3.5 9.5 5.5 11.5 5.833 3.833 11.5 5.5 11.667 3 18 4 12.333 1.667 18 2 9.834-.167 12.501-1.5v470c-2.667-1.333-6.834-1.833-12.501-1.5s-11.667 1-18 2-12.333 2.333-18 4-9.5 3.5-11.5 5.5-3.833 5.833-5.5 11.5-3 11.667-4 18-1.667 12.333-2 18 .167 9.834 1.5 12.501h-260c1.333-2.667 1.833-6.834 1.5-12.501s-1-11.667-2-18-2.333-12.333-4-18-3.5-9.5-5.5-11.5-5.833-3.833-11.5-5.5-11.667-3-18-4-12.333-1.667-18-2-9.834.167-12.501 1.5V69zm140 470h120V69H215v470zm61 267h132v-66h-66v-66H209v65h67v67z"/><glyph glyph-name="Ocircumflex" unicode="Ô" d="M75 69c2.667 1.333 6.834 1.833 12.501 1.5s11.667-1 18-2 12.333-2.333 18-4 9.5-3.5 11.5-5.5 3.833-5.833 5.5-11.5 3-11.667 4-18 1.667-12.333 2-18-.167-9.834-1.5-12.501h260c-1.333 2.667-1.833 6.834-1.5 12.501s1 11.667 2 18 2.333 12.333 4 18 3.5 9.5 5.5 11.5 5.833 3.833 11.5 5.5 11.667 3 18 4 12.333 1.667 18 2 9.834-.167 12.501-1.5v470c-2.667-1.333-6.834-1.833-12.501-1.5s-11.667 1-18 2-12.333 2.333-18 4-9.5 3.5-11.5 5.5-3.833 5.833-5.5 11.5-3 11.667-4 18-1.667 12.333-2 18 .167 9.834 1.5 12.501h-260c1.333-2.667 1.833-6.834 1.5-12.501s-1-11.667-2-18-2.333-12.333-4-18-3.5-9.5-5.5-11.5-5.833-3.833-11.5-5.5-11.667-3-18-4-12.333-1.667-18-2-9.834.167-12.501 1.5V69zm140 470h120V69H215v470zm-74 269h266v-68h66v-65H341v67H208v-66H75v65h66v67z"/><glyph glyph-name="Otilde" unicode="Õ" d="M75 69c2.667 1.333 6.834 1.833 12.501 1.5s11.667-1 18-2 12.333-2.333 18-4 9.5-3.5 11.5-5.5 3.833-5.833 5.5-11.5 3-11.667 4-18 1.667-12.333 2-18-.167-9.834-1.5-12.501h260c-1.333 2.667-1.833 6.834-1.5 12.501s1 11.667 2 18 2.333 12.333 4 18 3.5 9.5 5.5 11.5 5.833 3.833 11.5 5.5 11.667 3 18 4 12.333 1.667 18 2 9.834-.167 12.501-1.5v470c-2.667-1.333-6.834-1.833-12.501-1.5s-11.667 1-18 2-12.333 2.333-18 4-9.5 3.5-11.5 5.5-3.833 5.833-5.5 11.5-3 11.667-4 18-1.667 12.333-2 18 .167 9.834 1.5 12.501h-260c1.333-2.667 1.833-6.834 1.5-12.501s-1-11.667-2-18-2.333-12.333-4-18-3.5-9.5-5.5-11.5-5.833-3.833-11.5-5.5-11.667-3-18-4-12.333-1.667-18-2-9.834.167-12.501 1.5V69zm140 470h120V69H215v470zm-77 268h200v-66h67v66h132v-66h-66v-66H272v65h-67v-65H72v65h66v67z"/><glyph glyph-name="Odieresis" unicode="Ö" d="M119 580v-70H59V63h60V3h279v60h60v447h-60v70H119zm219-70V63H195v447h143zM57 770V641h134v129H57zm273 0V641h134v129H330z"/><glyph glyph-name="multiply" unicode="×" d="M67 200V68h65v65h68v68h133v-67h66V68h66v132h-66v67h-67v67h68v66h66v134h-66v-67h-67v-67H199v68h-67v66H67V401h66v-67h66v-67h-67v-67H67z"/><glyph glyph-name="Oslash" unicode="Ø" d="M200 133V67h133v201h-66V133h-67zm-1 400V333h67v134h66v66H199zm-66 67 333 1V67h-66V0H67v534h66v66z"/><glyph glyph-name="Ugrave" unicode="Ù" d="M56 70c2.667 1.333 6.832 1.833 12.499 1.5s11.667-1 18-2 12.333-2.333 18-4 9.5-3.5 11.5-5.5 3.833-5.833 5.5-11.5 3-11.667 4-18 1.667-12.333 2-18-.167-9.834-1.5-12.501h260c-1.333 2.667-1.833 6.834-1.5 12.501s1 11.667 2 18 2.333 12.333 4 18 3.5 9.5 5.5 11.5 5.833 3.833 11.5 5.5 11.667 3 18 4 12.333 1.667 18 2 9.834-.167 12.501-1.5v540H321V70H191v540H56V70zm67.998 739h133v-65h65v-67h-131v67h-67v65z"/><glyph glyph-name="Uacute" unicode="Ú" d="M56 70c2.667 1.333 6.832 1.833 12.499 1.5s11.667-1 18-2 12.333-2.333 18-4 9.5-3.5 11.5-5.5 3.833-5.833 5.5-11.5 3-11.667 4-18 1.667-12.333 2-18-.167-9.834-1.5-12.501h260c-1.333 2.667-1.833 6.834-1.5 12.501s1 11.667 2 18 2.333 12.333 4 18 3.5 9.5 5.5 11.5 5.833 3.833 11.5 5.5 11.667 3 18 4 12.333 1.667 18 2 9.834-.167 12.501-1.5v540H321V70H191v540H56V70zm202.998 739h133v-66h-68v-66h-132v66h67v66z"/><glyph glyph-name="Ucircumflex" unicode="Û" d="M56 70c2.667 1.333 6.832 1.833 12.499 1.5s11.667-1 18-2 12.333-2.333 18-4 9.5-3.5 11.5-5.5 3.833-5.833 5.5-11.5 3-11.667 4-18 1.667-12.333 2-18-.167-9.834-1.5-12.501h260c-1.333 2.667-1.833 6.834-1.5 12.501s1 11.667 2 18 2.333 12.333 4 18 3.5 9.5 5.5 11.5 5.833 3.833 11.5 5.5 11.667 3 18 4 12.333 1.667 18 2 9.834-.167 12.501-1.5v540H321V70H191v540H56V70zm67.998 739h268v-66h65v-65h-132v65h-132v-66h-134v66h65v66z"/><glyph glyph-name="Udieresis" unicode="Ü" d="M59 572V59h60V-1h281v60h60v513H340V59H191v513H59zm-2 198V641h134v129H57zm273 0V641h134v129H330z"/><glyph glyph-name="Yacute" unicode="Ý" d="M189 275V0h130v275h70v60h65v275H319V340H189v270H54V335h65v-60h70zm0 468h68v67h132v-66h-66v-66H189v65z"/><glyph glyph-name="Thorn" unicode="Þ" d="M200 200h133v200H200V200zM67 600h133V468h199v-68h66V201h-66v-67H200V0H67v600z"/><glyph glyph-name="germandbls" unicode="ß" d="M138 576v-60H78V-1h120v517h60V312h60V59h-60V-1h120v60h60v253h-60v204h-60v60H138z"/><glyph glyph-name="agrave" unicode="à" d="M59 70c2.667 1.333 6.835 1.833 12.502 1.5s11.667-1 18-2 12.333-2.333 18-4 9.5-3.5 11.5-5.5 3.833-5.833 5.5-11.5 3-11.667 4-18 1.667-12.333 2-18-.167-9.834-1.5-12.501h330v400c-2.667-1.333-6.834-1.833-12.501-1.5s-11.667 1-18 2-12.333 2.333-18 4-9.5 3.5-11.5 5.5-3.833 5.833-5.5 11.5-3 11.667-4 18-1.667 12.333-2 18 .167 9.834 1.5 12.501h-260v-65h190V275h-190c1.333-2.667 1.833-7.167 1.5-13.5s-1-13-2-20-2.333-13.5-4-19.5-3.5-10-5.5-12-5.833-3.833-11.5-5.5-11.667-3-18-4-12.333-1.667-18-2-9.834.167-12.501 1.5V70zm140.001 130h120V70h-120v130zm-136 537h198V604h66v-67h-133v67h-66v68h-65v65z"/><glyph glyph-name="aacute" unicode="á" d="M59 70c2.667 1.333 6.835 1.833 12.502 1.5s11.667-1 18-2 12.333-2.333 18-4 9.5-3.5 11.5-5.5 3.833-5.833 5.5-11.5 3-11.667 4-18 1.667-12.333 2-18-.167-9.834-1.5-12.501h330v400c-2.667-1.333-6.834-1.833-12.501-1.5s-11.667 1-18 2-12.333 2.333-18 4-9.5 3.5-11.5 5.5-3.833 5.833-5.5 11.5-3 11.667-4 18-1.667 12.333-2 18 .167 9.834 1.5 12.501h-260v-65h190V275h-190c1.333-2.667 1.833-7.167 1.5-13.5s-1-13-2-20-2.333-13.5-4-19.5-3.5-10-5.5-12-5.833-3.833-11.5-5.5-11.667-3-18-4-12.333-1.667-18-2-9.834.167-12.501 1.5V70zm140.001 130h120V70h-120v130zm260 539 1-65h-67v-67h-66v-68h-133v67h67v133h198z"/><glyph glyph-name="acircumflex" unicode="â" d="M59 70c2.667 1.333 6.835 1.833 12.502 1.5s11.667-1 18-2 12.333-2.333 18-4 9.5-3.5 11.5-5.5 3.833-5.833 5.5-11.5 3-11.667 4-18 1.667-12.333 2-18-.167-9.834-1.5-12.501h330v400c-2.667-1.333-6.834-1.833-12.501-1.5s-11.667 1-18 2-12.333 2.333-18 4-9.5 3.5-11.5 5.5-3.833 5.833-5.5 11.5-3 11.667-4 18-1.667 12.333-2 18 .167 9.834 1.5 12.501h-260v-65h190V275h-190c1.333-2.667 1.833-7.167 1.5-13.5s-1-13-2-20-2.333-13.5-4-19.5-3.5-10-5.5-12-5.833-3.833-11.5-5.5-11.667-3-18-4-12.333-1.667-18-2-9.834.167-12.501 1.5V70zm140.001 130h120V70h-120v130zm262 406v-68h-133v68h-134v-67h-133v66h67v67h66v66h133v-66h67v-66h67z"/><glyph glyph-name="atilde" unicode="ã" d="M59 70c2.667 1.333 6.835 1.833 12.502 1.5s11.667-1 18-2 12.333-2.333 18-4 9.5-3.5 11.5-5.5 3.833-5.833 5.5-11.5 3-11.667 4-18 1.667-12.333 2-18-.167-9.834-1.5-12.501h330v400c-2.667-1.333-6.834-1.833-12.501-1.5s-11.667 1-18 2-12.333 2.333-18 4-9.5 3.5-11.5 5.5-3.833 5.833-5.5 11.5-3 11.667-4 18-1.667 12.333-2 18 .167 9.834 1.5 12.501h-260v-65h190V275h-190c1.333-2.667 1.833-7.167 1.5-13.5s-1-13-2-20-2.333-13.5-4-19.5-3.5-10-5.5-12-5.833-3.833-11.5-5.5-11.667-3-18-4-12.333-1.667-18-2-9.834.167-12.501 1.5V70zm140.001 130h120V70h-120v130zm333 536V604h-67v-68h-198v67h-67v67h-68v-66h-66v-67h-66v133h67v67h200v-67h66v-67h66v67h66v66h67z"/><glyph glyph-name="adieresis" unicode="ä" d="M136 440v-60h202V239H136v-60H76V59h60V-1h322v381h-60v60H136zm202-261V59H204v120h134zM81 641V521h120v120H81zm240 0V521h120v120H321z"/><glyph glyph-name="aring" unicode="å" d="M59 70c2.667 1.333 6.835 1.833 12.502 1.5s11.667-1 18-2 12.333-2.333 18-4 9.5-3.5 11.5-5.5 3.833-5.833 5.5-11.5 3-11.667 4-18 1.667-12.333 2-18-.167-9.834-1.5-12.501h330v400c-2.667-1.333-6.834-1.833-12.501-1.5s-11.667 1-18 2-12.333 2.333-18 4-9.5 3.5-11.5 5.5-3.833 5.833-5.5 11.5-3 11.667-4 18-1.667 12.333-2 18 .167 9.834 1.5 12.501h-260v-65h190V275h-190c1.333-2.667 1.833-7.167 1.5-13.5s-1-13-2-20-2.333-13.5-4-19.5-3.5-10-5.5-12-5.833-3.833-11.5-5.5-11.667-3-18-4-12.333-1.667-18-2-9.834.167-12.501 1.5V70zm140.001 130h120V70h-120v130zm260 474h-67v66h-266v-66h-66v-67h65v-67h268v68h66v66zm-265-2h133v-67h-132z"/><glyph glyph-name="ae" unicode="æ" d="M533 401V201H333V68h199V0H333v68h-66V0H67v68H0v133h66v67h134v133H67v67h132v-67h67v67h199v-67h68zM333 267h67v133h-67V267zM133 67h67v133h-67V67z"/><glyph glyph-name="ccedilla" unicode="ç" d="M56 70c2.667 1.333 6.835 1.834 12.502 1.501s11.667-1 18-2 12.333-2.333 18-4 9.5-3.5 11.5-5.5 3.833-5.833 5.5-11.5 3-11.667 4-18 1.667-12.333 2-18-.167-9.834-1.5-12.501h67v-64h68v-63h-130v-69h198v69h66v62h-66V2h56c-.667 1.333-.834 4.833-.501 10.5s1 11.667 2 18 2.333 12.333 4 18 3.5 9.5 5.5 11.5 5.833 3.833 11.5 5.5 11.667 3 18 4 12.333 1.667 18 2 9.834-.167 12.501-1.5v60h-135V70h-125v330h125v-60h135v60c-2.667-1.333-6.834-1.833-12.501-1.5s-11.667 1-18 2-12.333 2.333-18 4-9.5 3.5-11.5 5.5-3.833 5.833-5.5 11.5-3 11.667-4 18-1.667 12.333-2 18 .167 9.834 1.5 12.501h-260c1.333-2.667 1.833-6.834 1.5-12.501s-1-11.667-2-18-2.333-12.333-4-18-3.5-9.5-5.5-11.5-5.833-3.833-11.5-5.5-11.667-3-18-4-12.333-1.667-18-2-9.834.167-12.501 1.5V70z"/><glyph glyph-name="egrave" unicode="è" d="M200 400V267h133v133H200zm133 200v-67H199v67h-66v67H67v67h199V600h67zM133 467h267v-67h66V200H200V67h199V-1H133v68H67v333h66v67z"/><glyph glyph-name="eacute" unicode="é" d="M200 400V267h133v133H200zm-67 67h267v-67h67V200H200V67h199V-1H133v68H67v334h66v66zm134 266h198v-65h-65v-67h-67v-68H200v67h67v133z"/><glyph glyph-name="ecircumflex" unicode="ê" d="M200 400V267h133v133H200zm-67 67h267v-67h67V200H200V67h199V1H133v66H67v334h66v66zm67 266h132v-66h68v-66h66v-67H332v66H200v-67H67v68h66v66h67v66z"/><glyph glyph-name="edieresis" unicode="ë" d="M67 667h133V533H67v134zm133-267V267h133v133H200zm-67 67h266v-67h68V200H200V67h199V1H133v66H67v334h66v66zm200 200h134V533H333v134z"/><glyph glyph-name="igrave" unicode="ì" d="M59 65V0h400v65H324v405H59v-65h130V65H59zm135 472h133v67h-67v133H60v-65h67v-67h67v-68z"/><glyph glyph-name="iacute" unicode="í" d="M59 65V0h400v65H324v405H59v-65h130V65H59zm198 541h-66v-67h132v67h67v67h67v65H257V606z"/><glyph glyph-name="icircumflex" unicode="î" d="M59 65V0h400v65H324v405H59v-65h130V65H59zm133 672v-66h-67v-67H59v-67h133v68h133v-67h134v66h-66v67h-67v66H192z"/><glyph glyph-name="idieresis" unicode="ï" d="M59 65V0h400v65H324v405H59v-65h130V65H59zm264 607V537h134v135H323zm-265 0V537h134v135H58z"/><glyph glyph-name="eth" unicode="ð" d="M200 334h133V67H200v267zm132 266v-67h-66v67H133v-67h67v-66H67v-67h133v-67H67V67h66V0h267v68h65v333h-65v66h-68v67h133v66H332zM200 400h67v67h-67v-67z"/><glyph glyph-name="ntilde" unicode="ñ" d="M59 470V0h135v400h130V0h135v400l-65 7v63H59zm474 266V603h-67v-68H267v67h-67v67h-68v-66H66v-68H-1v134h67v67h200v-66h66v-67h68v66h66v67h67z"/><glyph glyph-name="ograve" unicode="ò" d="M59 70c2.667 1.333 6.834 1.833 12.501 1.5s11.667-1 18-2 12.333-2.333 18-4 9.5-3.5 11.5-5.5 3.833-5.833 5.5-11.5 3-11.667 4-18 1.667-12.333 2-18-.167-9.834-1.5-12.501h260c-1.333 2.667-1.833 6.834-1.5 12.501s1 11.667 2 18 2.333 12.333 4 18 3.5 9.5 5.5 11.5 5.833 3.833 11.5 5.5 11.667 3 18 4 12.333 1.667 18 2 9.834-.167 12.501-1.5v330c-2.667-1.333-6.834-1.833-12.501-1.5s-11.667 1-18 2-12.333 2.333-18 4-9.5 3.5-11.5 5.5-3.833 5.833-5.5 11.5-3 11.667-4 18-1.667 12.333-2 18 .167 9.834 1.5 12.501h-260c1.333-2.667 1.833-6.834 1.5-12.501s-1-11.667-2-18-2.333-12.333-4-18-3.5-9.5-5.5-11.5-5.833-3.833-11.5-5.5-11.667-3-18-4-12.333-1.667-18-2-9.834.167-12.501 1.5V70zm140 330h120V70H199v330zM59 742h200V609h66v-67H193v67h-68v67H59v66z"/><glyph glyph-name="oacute" unicode="ó" d="M59 70c2.667 1.333 6.834 1.833 12.501 1.5s11.667-1 18-2 12.333-2.333 18-4 9.5-3.5 11.5-5.5 3.833-5.833 5.5-11.5 3-11.667 4-18 1.667-12.333 2-18-.167-9.834-1.5-12.501h260c-1.333 2.667-1.833 6.834-1.5 12.501s1 11.667 2 18 2.333 12.333 4 18 3.5 9.5 5.5 11.5 5.833 3.833 11.5 5.5 11.667 3 18 4 12.333 1.667 18 2 9.834-.167 12.501-1.5v330c-2.667-1.333-6.834-1.833-12.501-1.5s-11.667 1-18 2-12.333 2.333-18 4-9.5 3.5-11.5 5.5-3.833 5.833-5.5 11.5-3 11.667-4 18-1.667 12.333-2 18 .167 9.834 1.5 12.501h-260c1.333-2.667 1.833-6.834 1.5-12.501s-1-11.667-2-18-2.333-12.333-4-18-3.5-9.5-5.5-11.5-5.833-3.833-11.5-5.5-11.667-3-18-4-12.333-1.667-18-2-9.834.167-12.501 1.5V70zm140 330h120V70H199v330zm55 341h199v-66h-65v-67h-67v-67H188v66h66v134z"/><glyph glyph-name="ocircumflex" unicode="ô" d="M59 70c2.667 1.333 6.834 1.833 12.501 1.5s11.667-1 18-2 12.333-2.333 18-4 9.5-3.5 11.5-5.5 3.833-5.833 5.5-11.5 3-11.667 4-18 1.667-12.333 2-18-.167-9.834-1.5-12.501h260c-1.333 2.667-1.833 6.834-1.5 12.501s1 11.667 2 18 2.333 12.333 4 18 3.5 9.5 5.5 11.5 5.833 3.833 11.5 5.5 11.667 3 18 4 12.333 1.667 18 2 9.834-.167 12.501-1.5v330c-2.667-1.333-6.834-1.833-12.501-1.5s-11.667 1-18 2-12.333 2.333-18 4-9.5 3.5-11.5 5.5-3.833 5.833-5.5 11.5-3 11.667-4 18-1.667 12.333-2 18 .167 9.834 1.5 12.501h-260c1.333-2.667 1.833-6.834 1.5-12.501s-1-11.667-2-18-2.333-12.333-4-18-3.5-9.5-5.5-11.5-5.833-3.833-11.5-5.5-11.667-3-18-4-12.333-1.667-18-2-9.834.167-12.501 1.5V70zm140 330h120V70H199v330zm-7 337h133v-66h67v-68h65v-66H325v67H191v-68H59v67h65v67h68v67z"/><glyph glyph-name="otilde" unicode="õ" d="M59 70c2.667 1.333 6.834 1.833 12.501 1.5s11.667-1 18-2 12.333-2.333 18-4 9.5-3.5 11.5-5.5 3.833-5.833 5.5-11.5 3-11.667 4-18 1.667-12.333 2-18-.167-9.834-1.5-12.501h260c-1.333 2.667-1.833 6.834-1.5 12.501s1 11.667 2 18 2.333 12.333 4 18 3.5 9.5 5.5 11.5 5.833 3.833 11.5 5.5 11.667 3 18 4 12.333 1.667 18 2 9.834-.167 12.501-1.5v330c-2.667-1.333-6.834-1.833-12.501-1.5s-11.667 1-18 2-12.333 2.333-18 4-9.5 3.5-11.5 5.5-3.833 5.833-5.5 11.5-3 11.667-4 18-1.667 12.333-2 18 .167 9.834 1.5 12.501h-260c1.333-2.667 1.833-6.834 1.5-12.501s-1-11.667-2-18-2.333-12.333-4-18-3.5-9.5-5.5-11.5-5.833-3.833-11.5-5.5-11.667-3-18-4-12.333-1.667-18-2-9.834.167-12.501 1.5V70zm140 330h120V70H199v330zM0 672h67v65h199v-66h66v-67h68v68h65v65h67V605h-67l1-67H267v67h-67v67h-68v-68H66v-66H0v134z"/><glyph glyph-name="odieresis" unicode="ö" d="M81 641V521h120v120H81zm240 0V521h120v120H321zM141 447v-60H81V60h60V0h240v60h60v327h-60v60H141zm180-60V60H201v327h120z"/><glyph glyph-name="divide" unicode="÷" d="M200 200h133V67H200v133zm0 333h133V400H200v133zm265-200v-66H67v66h398z"/><glyph glyph-name="oslash" unicode="ø" d="M200 133V67h133v133h-66v-67h-67zm0 267V267h66v66h67v67H200zm-67 67h333V67h-66V0H67v400h66v67z"/><glyph glyph-name="ugrave" unicode="ù" d="M59 70c2.667 1.333 6.833 1.834 12.5 1.501s11.667-1 18-2 12.333-2.333 18-4 9.5-3.5 11.5-5.5 3.833-5.833 5.5-11.5 3-11.667 4-18 1.667-12.333 2-18S130.333 2.667 129 0h330v470H324V70H194v400H59V70zm-1.001 668.001h199v-132h67v-68h-133v68h-67v67h-66v65z"/><glyph glyph-name="uacute" unicode="ú" d="M59 70c2.667 1.333 6.833 1.834 12.5 1.501s11.667-1 18-2 12.333-2.333 18-4 9.5-3.5 11.5-5.5 3.833-5.833 5.5-11.5 3-11.667 4-18 1.667-12.333 2-18S130.333 2.667 129 0h330v470H324V70H194v400H59V70zm199.999 667.001h199v-66h-66v-66h-67v-67h-133v66h67v133z"/><glyph glyph-name="ucircumflex" unicode="û" d="M59 70c2.667 1.333 6.833 1.834 12.5 1.501s11.667-1 18-2 12.333-2.333 18-4 9.5-3.5 11.5-5.5 3.833-5.833 5.5-11.5 3-11.667 4-18 1.667-12.333 2-18S130.333 2.667 129 0h330v470H324V70H194v400H59V70zm133.999 666.001h132v-65h67v-67h66v-67h-133v67h-133v-68h-132v67h66v67h67v66z"/><glyph glyph-name="udieresis" unicode="ü" d="M83 435V58h60V-2h300v437H323V58H203v377H83zm-2 206V521h120v120H81zm240 0V521h120v120H321z"/><glyph glyph-name="yacute" unicode="ý" d="m6-139-.002-55h265v50c2.667-1.333 7.167-1.833 13.5-1.5s13 1 20 2 13.5 2.333 19.5 4 10 3.5 12 5.5c.667.667 1.5 4 2.5 10s1.833 12.5 2.5 19.5 1.334 13.5 2.001 19.5 1.667 9.667 3 11c2 2 6 3.833 12 5.5s12.5 3 19.5 4 13.667 1.667 20 2 10.833-.167 13.5-1.5V71h65v405h-135V76h-130v400h-135V76c2.667 1.333 6.834 1.833 12.501 1.5s11.667-1 18-2 12.333-2.333 18-4S134 68 136 66s3.833-6 5.5-12 3-12.5 4-19.5 1.667-13.667 2-20S147.333 3.667 146 1h120v-70h-55v-70H6zm265.998 883h200v-66h-66v-67h-67v-68h-133v67h67z"/><glyph glyph-name="thorn" unicode="þ" d="M200 68h133v266H200V68zM67 600h133V401h199v-68h66V67h-65V0H200v-200H67v800z"/><glyph glyph-name="ydieresis" unicode="ÿ" d="m6-139-.002-55h265v50c2.667-1.333 7.167-1.833 13.5-1.5s13 1 20 2 13.5 2.333 19.5 4 10 3.5 12 5.5c.667.667 1.5 4 2.5 10s1.833 12.5 2.5 19.5 1.334 13.5 2.001 19.5 1.667 9.667 3 11c2 2 6 3.833 12 5.5s12.5 3 19.5 4 13.667 1.667 20 2 10.833-.167 13.5-1.5V71h65v405h-135V76h-130v400h-135V76c2.667 1.333 6.834 1.833 12.501 1.5s11.667-1 18-2 12.333-2.333 18-4S134 68 136 66s3.833-6 5.5-12 3-12.5 4-19.5 1.667-13.667 2-20S147.333 3.667 146 1h120v-70h-55v-70H6zm200.998 813V540h-133v134h133zm269 0V540h-134v134h134z"/><glyph glyph-name="tilde" unicode="˜" d="M1 557V423h61v65h67v68h77v-68h60v-65h216v65h59v135h-60v-63h-80v-67h-60v68h-80v71H66v-75H1z"/><glyph glyph-name="Euro" unicode="€" d="M125 625h311v-61h63v-64H375v63H187V401h188v-57l-189-1v-63h126v-64H186V63h188v62h125V64h-62V0H124v64H63v154H0v63h63v63H0v56h62v163h63v62z"/><glyph glyph-name=".null"/><glyph glyph-name="nonmarkingreturn"/><glyph glyph-name=".002" d="M10 70c2.667 1.333 6.834 1.833 12.501 1.5s11.667-1 18-2 12.333-2.333 18-4 9.5-3.5 11.5-5.5 3.833-5.833 5.5-11.5 3-11.667 4-18 1.667-12.333 2-18-.167-9.834-1.5-12.501h260c-1.333 2.667-1.833 6.834-1.5 12.501s1 11.667 2 18 2.333 12.333 4 18 3.5 9.5 5.5 11.5 5.833 3.833 11.5 5.5 11.667 3 18 4 12.333 1.667 18 2 9.834-.167 12.501-1.5v130h-135V70h-125v470h125V410h135v130c-2.667-1.333-6.834-1.833-12.501-1.5s-11.667 1-18 2-12.333 2.333-18 4-9.5 3.5-11.5 5.5-3.833 5.833-5.5 11.5-3 11.667-4 18-1.667 12.333-2 18 .167 9.834 1.5 12.501h-260c1.333-2.667 1.833-6.834 1.5-12.501s-1-11.667-2-18-2.333-12.333-4-18-3.5-9.5-5.5-11.5-5.833-3.833-11.5-5.5-11.667-3-18-4-12.333-1.667-18-2-9.834.167-12.501 1.5V70z"/><glyph glyph-name="sf256"/><glyph glyph-name="sf260" d="M0 479V-.999h120v400h160v-400h152c0 54.667.5 104.667 1.5 150s.167 86.166-2.5 122.499-8.667 67.833-18 94.5-24 49-44 67-46.833 31.5-80.5 40.5S212 487 160 487c-6 0-16.667-.5-32-1.5s-31.5-2-48.5-3-33-1.833-48-2.5S6 479 0 479z"/><glyph glyph-name="sf264" d="M6 236c0-41.333 2.167-76.666 6.5-105.999s13.166-53.5 26.499-72.5 32.833-32.833 58.5-41.5 60.167-13 103.5-13 77.833 4.333 103.5 13 45.334 22.5 59.001 41.5 22.5 43.167 26.5 72.5 6 64.666 6 105.999-2 76.666-6 105.999-12.833 53.333-26.5 72-33.334 32.334-59.001 41.001-60.167 13-103.5 13-77.833-4.333-103.5-13-45.167-22.334-58.5-41.001-22.166-42.667-26.499-72S6 277.333 6 236zm158 150h75V86h-75v300z"/><glyph glyph-name="sf265" d="M8 417v-705c4 0 9.667.833 17 2.5s15 4 23 7 15.333 6.167 22 9.5 11 7 13 11c4 4 9.333 13.333 16 28l21.5 47 21.5 47c6.667 14.667 12 24 16 28s13.333 9.667 28 17l47 23 47 22c14.667 6.667 24 11 28 13 5.333 4 12.333 9.667 21 17s17 15 25 23 14.833 15.333 20.5 22 8.5 11 8.5 13 .333 9 1 21 1.5 26 2.5 42 1.833 32.167 2.5 48.5 1 29.166 1 38.499-.333 22-1 38-1.5 32-2.5 48-1.833 30.167-2.5 42.5-1 19.5-1 21.5c-2 5.333-6 11.833-12 19.5s-12.833 15.334-20.5 23.001-15.334 14.5-23.001 20.5-14.167 10-19.5 12c-2 0-9.167.333-21.5 1s-26.5 1.5-42.5 2.5-32 1.833-48 2.5-28.667 1-38 1c-6 0-16-.333-30-1s-29-1.5-45-2.5-31.167-1.833-45.5-2.5S13.333 417 8 417zm150-75h75V42h-75v300z"/><glyph glyph-name="sf259" d="m69 448 .001-449.999h75l3 372 109-297 150 300v-375h143c0 10-.5 25-1.5 45s-2.5 42.333-4.5 67l-6.5 78-6.5 77.5c-2 24.333-4 46.166-6 65.499s-3.667 33.333-5 42c0 5.333-2.833 12.333-8.5 21s-12.5 17-20.5 25-16.333 14.833-25 20.5-15.667 8.5-21 8.5c-2 0-10.5.333-25.5 1s-32.333 1.5-52 2.5-39.667 1.833-60 2.5-37.166 1-50.499 1c-7.333 0-19.833-.333-37.5-1s-36.334-1.5-56.001-2.5-38.334-1.833-56.001-2.5-30.167-1-37.5-1z"/><glyph glyph-name="sf261" d="M10 610 9.998-.004h135v311c2 0 5.667 1.333 11 4l16.5 8c5.667 2.667 11.167 4.834 16.5 6.501s9 1.834 11 .501 3.833-4.333 5.5-9 3-9.667 4-15 1.667-10.5 2-15.5-.167-8.5-1.5-10.5c2.667 1.333 6.834 1.833 12.501 1.5s11.667-1 18-2 12.333-2.333 18-4 9.5-3.5 11.5-5.5c.667-1.333 1.5-5 2.5-11s1.833-12.5 2.5-19.5 1.334-13.5 2.001-19.5 1.667-9.333 3-10c2-2 6-3.833 12-5.5s12.5-3 19.5-4 13.667-1.667 20-2 10.833.167 13.5 1.5v-200h135v610H345v-270h-65c1.333 2.667 1.833 6.834 1.5 12.501s-1 11.667-2 18-2.333 12.333-4 18-3.5 9.5-5.5 11.5c-1.333.667-5 1.5-11 2.5s-12.5 1.833-19.5 2.5-13.5 1.334-19.5 2-9.333 1.668-10 3c-2 2-3.833 6-5.5 12s-3 12.5-4 19.5-1.667 13.668-2 20 .167 10.834 1.5 13.5h-55v135H10z"/><glyph glyph-name="sf263" d="M7 457 6.999-.001h102v233c1.333 0 4 1 8 3l12.5 6c4.333 2 8.5 3.667 12.5 5s6.667 1.333 8 0 2.666-3.5 3.999-6.5 2.333-6.5 3-10.5 1-8 1-12c0-3.333-.333-6-1-8 2 .667 5 1 9 1 4.667 0 9.334-.5 14.001-1.5s9.167-2.167 13.5-3.5 7.166-2.666 8.5-3.999c.666-.667 1.333-3.334 2-8.001l2-14.5 2-14.5c.667-4.667 1.334-7.334 2.001-8.001 2-1.333 5.167-2.666 9.5-3.999s9-2.333 14-3 10-1.167 15-1.5 8.5.167 10.5 1.5v-150h101v457H259v-202h-49c.667 2 1 5 1 9 0 4.667-.5 9.334-1.5 14.001s-2.167 9.167-3.5 13.5-2.666 7.166-3.999 8.499c-.667.667-3.334 1.334-8.001 2.001s-9.5 1.167-14.5 1.5-9.833.833-14.5 1.5-7.334 1.334-8.001 2.001c-1.333 2-2.666 5.167-3.999 9.5s-2.333 9.166-3 14.499-1.167 10.333-1.5 15 .167 8 1.5 10h-41v101H7z"/><glyph glyph-name="sf262" d="M7 457V0h102v304h41v52h-41v101H7zm252-157 .001-300h101v457h-101v-97c-2 .667-5.667 1-11 1-4.667 0-9.5-.5-14.5-1.5s-9.667-2.167-14-3.5-7.5-2.666-9.5-3.999c-.667-.667-1.334-3.334-2.001-8.001l-2-14.5-2-14.5c-.667-4.667-1.334-7.334-2.001-8.001-1.333-1.333-4.166-2.666-8.499-3.999s-8.833-2.333-13.5-3-9.167-1.167-13.5-1.5-7.5.167-9.5 1.5V157h49v143h53z"/><glyph glyph-name="sf266" d="m10 130 .006-130h135v130h130V0h135v130c-2.667-1.333-6.834-1.833-12.501-1.5s-11.667 1-18 2-12.333 2.333-18 4-9.5 3.5-11.5 5.5c-1.333.667-2.333 4-3 10s-1.334 12.5-2.001 19.5-1.5 13.5-2.5 19.5-1.833 9.667-2.5 11c-2 2-5.833 3.833-11.5 5.5s-11.667 3-18 4-12.333 1.667-18 2-9.834-.167-12.501-1.5v65h65v60h65v135h-135V340h-130v130h-135V335h65v-60h65v-65c-2.667 1.333-6.834 1.833-12.501 1.5s-11.667-1-18-2-12.333-2.333-18-4-9.5-3.5-11.5-5.5c-1.333-1.333-2.333-5-3-11S75.668 176.5 75 169.5 73.5 156 72.5 150s-1.833-9.333-2.5-10c-2-2-5.833-3.833-11.5-5.5s-11.667-3-18-4-12.333-1.667-18-2-9.834.167-12.501 1.5z"/><glyph glyph-name="sf267" d="m6-139-.002-55h265v50c2.667-1.333 7.167-1.833 13.5-1.5s13 1 20 2 13.5 2.333 19.5 4 10 3.5 12 5.5c.667.667 1.5 4 2.5 10s1.833 12.5 2.5 19.5 1.334 13.5 2.001 19.5 1.667 9.667 3 11c2 2 6 3.833 12 5.5s12.5 3 19.5 4 13.667 1.667 20 2 10.833-.167 13.5-1.5V71h65v405h-135V76h-130v400h-135V76c2.667 1.333 6.834 1.833 12.501 1.5s11.667-1 18-2 12.333-2.333 18-4S134 68 136 66s3.833-6 5.5-12 3-12.5 4-19.5 1.667-13.667 2-20S147.333 3.667 146 1h120v-70h-55v-70H6z"/><glyph glyph-name="sf268" d="m145 4-.002-130.001h130v130c2.667-1.333 7.167-1.833 13.5-1.5s13 1 20 2 13.5 2.333 19.5 4 10 3.5 12 5.5c.667.667 1.5 4 2.5 10s1.833 12.5 2.5 19.5 1.334 13.5 2.001 19.5 1.667 9.667 3 11c2 2 5.833 3.833 11.5 5.5s11.667 3 18 4 12.333 1.667 18 2 9.834-.167 12.501-1.5v130c-2.667-1.333-6.834-1.833-12.501-1.5s-11.667 1-18 2-12.333 2.333-18 4-9.5 3.5-11.5 5.5c-1.333.667-2.333 4-3 10s-1.334 12.5-2.001 19.5-1.5 13.5-2.5 19.5-1.833 9.667-2.5 11c-2 2-6 3.833-12 5.5s-12.5 3-19.5 4-13.667 1.667-20 2-10.833-.167-13.5-1.5v50c-2.667-1.333-7.334-2-14.001-2-6 0-12.5.5-19.5 1.5s-13.5 2.5-19.5 4.5-10 4-12 6-4 6-6 12-3.5 12.5-4.5 19.5-1.5 13.5-1.5 19.5c0 6.667.667 11.334 2 14.001h-50v135h125v-60h135v60c-2.667-1.333-6.834-1.833-12.501-1.5s-11.667 1-18 2-12.333 2.333-18 4-9.5 3.5-11.5 5.5c-1.333.667-2.333 4-3 10s-1.334 12.5-2 19.5-1.5 13.5-2.5 19.5-1.834 9.667-2.5 11c-2 2-6 3.833-12 5.5s-12.5 3-19.5 4-13.668 1.667-20 2-10.834-.167-13.5-1.5v90h-130v-90c-2.668 1.333-7.168 1.833-13.5 1.5s-13-1-20-2-13.5-2.333-19.5-4-10-3.5-12-5.5c-1.334-1.333-2.334-5-3-11s-1.335-12.5-2.002-19.5-1.5-13.5-2.5-19.5-1.833-9.333-2.5-10c-2-2-5.833-3.833-11.5-5.5s-11.667-3-18-4-12.333-1.667-18-2-9.834.167-12.5 1.5V424c2.666 1.333 6.833 1.833 12.5 1.5s11.667-1 18-2 12.333-2.333 18-4 9.5-3.5 11.5-5.5c.667-1.333 1.5-5 2.5-11s1.833-12.5 2.5-19.5 1.334-13.5 2.001-19.5 1.667-9.333 3-10c2-2 5.833-3.833 11.5-5.5s11.667-3 18-4 12.333-1.667 18-2 9.834.167 12.501 1.5c-1.333-2-1.666-5.333-.999-10s1.5-9.667 2.5-15 2.333-10.333 4-15 3.167-8 4.5-10 4.333-3.667 9-5 9.667-2.5 15-3.5 10.5-1.667 15.5-2 8.5-.166 10.5.501c-1.333-2.667-1.833-6.834-1.5-12.501s1-11.667 2-18 2.333-12.333 4-18 3.5-9.5 5.5-11.5 5.833-3.833 11.5-5.5 11.667-3 18-4 12.333-1.667 18-2 9.834.167 12.501 1.5V84h-125v60h-135V84c2.667 1.333 6.834 1.833 12.501 1.5s11.667-1 18-2 12.333-2.333 18-4 9.5-3.5 11.5-5.5c.667-1.333 1.5-5 2.5-11s1.833-12.5 2.5-19.5S76.333 30 77 24s1.667-9.333 3-10c2-2 6-3.833 12-5.5s12.5-3 19.5-4 13.667-1.667 20-2 10.833.167 13.5 1.5z"/><glyph glyph-name="sf269" d="M10 810V0h260v55H140v690h130v65H10z"/><glyph glyph-name="sf270" d="M56 603V403h130v200H56zm270 0V403h130v200H326z"/><glyph glyph-name="glyph124" d="M267 600h133V333H200z"/></font>
</defs>
</svg>
